M48
METRIC,LZ,000.000
;FILE_FORMAT=3:3
;TYPE=PLATED
;Layer: PTH_Through_Via
;EasyEDA v6.5.54, 2026-04-17 11:21:59
;b7d0612ef2f4465c8c83642826453f38,81a6330f3d4149d2af66a0b9843494eb,10
;Gerber Generator version 0.2
;Holesize 1 = 0.306 mm
T01C0.306
;Holesize 2 = 0.310 mm
T02C0.310
%
G05
G90
T01
X104497Y047413
X123138Y046844
X119602Y052262
X117497Y053491
X121923Y053491
X097066Y058455
X121345Y045671
X122135Y045677
X116415Y046474
X102032Y042892
X099992Y040274
X100003Y042174
X103185Y057852
X127112Y025159
X104520Y048361
X103159Y059401
X080427Y048301
X094219Y038294
X105470Y040690
X101766Y055526
X125068Y041458
X123937Y050221
X113834Y047860
X094210Y013505
X094210Y017489
X137057Y058620
X129636Y048601
X116469Y051020
X088252Y043891
X126396Y048896
X124320Y050972
X120523Y044958
X097023Y056927
T02
X114300Y043053
X117729Y046101
X116332Y047498
X113157Y047117
M30
