G04 Layer: BottomLayer*
G04 EasyEDA v6.5.54, 2026-04-17 11:21:59*
G04 b7d0612ef2f4465c8c83642826453f38,81a6330f3d4149d2af66a0b9843494eb,10*
G04 Gerber Generator version 0.2*
G04 Scale: 100 percent, Rotated: No, Reflected: No *
G04 Dimensions in millimeters *
G04 leading zeros omitted , absolute positions ,4 integer and 5 decimal *
%FSLAX45Y45*%
%MOMM*%

%ADD10C,0.2540*%
%ADD11C,1.6000*%
%ADD12C,1.5748*%
%ADD13R,1.5748X1.5748*%
%ADD14R,1.2116X1.2116*%
%ADD15C,0.6100*%
%ADD16C,0.0133*%
%ADD17C,0.6200*%

%LPD*%
G36*
X6288176Y-875792D02*
G01*
X6252464Y-874826D01*
X6217259Y-872032D01*
X6182258Y-867410D01*
X6147562Y-861009D01*
X6113272Y-852728D01*
X6079439Y-842721D01*
X6046165Y-830884D01*
X6013551Y-817372D01*
X5981750Y-802182D01*
X5950712Y-785317D01*
X5920638Y-766876D01*
X5891580Y-746861D01*
X5863590Y-725373D01*
X5836767Y-702462D01*
X5811164Y-678180D01*
X5786882Y-652526D01*
X5763971Y-625703D01*
X5742482Y-597712D01*
X5722518Y-568604D01*
X5704078Y-538530D01*
X5687263Y-507492D01*
X5672074Y-475640D01*
X5658612Y-443026D01*
X5646826Y-409752D01*
X5636818Y-375920D01*
X5628589Y-341579D01*
X5622188Y-306882D01*
X5617565Y-271881D01*
X5614822Y-236728D01*
X5613908Y-201218D01*
X5613908Y1342491D01*
X5614670Y1346352D01*
X5616854Y1349654D01*
X5623102Y1355902D01*
X5626404Y1358138D01*
X5630316Y1358900D01*
X7390384Y1358900D01*
X7390688Y1359611D01*
X7381697Y1368602D01*
X7379462Y1371904D01*
X7378700Y1375816D01*
X7378700Y6606031D01*
X7379462Y6609892D01*
X7381697Y6613194D01*
X7384948Y6615430D01*
X7388859Y6616192D01*
X13294918Y6616192D01*
X13330936Y6615226D01*
X13366089Y6612432D01*
X13401090Y6607809D01*
X13435787Y6601358D01*
X13470077Y6593128D01*
X13503910Y6583070D01*
X13537184Y6571284D01*
X13569797Y6557772D01*
X13601649Y6542582D01*
X13632637Y6525717D01*
X13662710Y6507276D01*
X13691819Y6487261D01*
X13719810Y6465773D01*
X13746632Y6442862D01*
X13772184Y6418529D01*
X13796467Y6392926D01*
X13819378Y6366103D01*
X13840866Y6338062D01*
X13860830Y6309004D01*
X13879271Y6278880D01*
X13896086Y6247892D01*
X13911275Y6216040D01*
X13924788Y6183426D01*
X13936522Y6150152D01*
X13946530Y6116320D01*
X13954760Y6081979D01*
X13961211Y6047282D01*
X13965783Y6012281D01*
X13968526Y5977077D01*
X13969441Y5941618D01*
X13969441Y5389676D01*
X13968679Y5385765D01*
X13966494Y5382463D01*
X13963192Y5380278D01*
X13959281Y5379516D01*
X13754455Y5379720D01*
X13750594Y5380532D01*
X13747292Y5382717D01*
X13745057Y5386019D01*
X13744295Y5389880D01*
X13744295Y5817006D01*
X13745057Y5820867D01*
X13747292Y5824169D01*
X13748867Y5825744D01*
X13754506Y5833821D01*
X13758672Y5842711D01*
X13761212Y5852210D01*
X13762075Y5862015D01*
X13761212Y5871768D01*
X13758672Y5881268D01*
X13754506Y5890209D01*
X13748867Y5898235D01*
X13741958Y5905195D01*
X13733881Y5910834D01*
X13724991Y5914948D01*
X13715492Y5917539D01*
X13705687Y5918352D01*
X13695934Y5917539D01*
X13686434Y5914948D01*
X13677493Y5910834D01*
X13669467Y5905195D01*
X13662507Y5898235D01*
X13656868Y5890209D01*
X13652754Y5881268D01*
X13650163Y5871768D01*
X13649350Y5862015D01*
X13650163Y5852210D01*
X13652754Y5842711D01*
X13656868Y5833821D01*
X13662507Y5825744D01*
X13664133Y5824169D01*
X13666317Y5820867D01*
X13667079Y5817006D01*
X13667079Y5390032D01*
X13666317Y5386120D01*
X13664133Y5382818D01*
X13660831Y5380634D01*
X13656919Y5379872D01*
X13372236Y5380177D01*
X13365734Y5379415D01*
X13358672Y5376519D01*
X13353491Y5372658D01*
X13349732Y5368036D01*
X13347192Y5362702D01*
X13345972Y5356809D01*
X13346023Y4556353D01*
X13346836Y4549698D01*
X13349630Y4541621D01*
X13352932Y4536846D01*
X13357351Y4532934D01*
X13362584Y4530191D01*
X13368324Y4528769D01*
X13374319Y4528769D01*
X13376757Y4529074D01*
X13656919Y4529531D01*
X13660831Y4528718D01*
X13664133Y4526534D01*
X13666317Y4523232D01*
X13667079Y4519371D01*
X13667079Y3521405D01*
X13666165Y3517137D01*
X13663523Y3513683D01*
X13659713Y3511600D01*
X13655344Y3511346D01*
X13651280Y3512921D01*
X13641324Y3519627D01*
X13634719Y3522878D01*
X13634719Y3474720D01*
X13656919Y3474720D01*
X13660831Y3473958D01*
X13664133Y3471722D01*
X13666317Y3468471D01*
X13667079Y3464560D01*
X13667079Y3393440D01*
X13666317Y3389528D01*
X13664133Y3386277D01*
X13660831Y3384042D01*
X13656919Y3383279D01*
X13634719Y3383279D01*
X13634719Y3335121D01*
X13641324Y3338372D01*
X13651280Y3345078D01*
X13655344Y3346653D01*
X13659713Y3346399D01*
X13663523Y3344316D01*
X13666165Y3340862D01*
X13667079Y3336594D01*
X13667079Y3267405D01*
X13666165Y3263138D01*
X13663523Y3259683D01*
X13659713Y3257600D01*
X13655344Y3257346D01*
X13651280Y3258921D01*
X13641324Y3265627D01*
X13629030Y3271672D01*
X13616076Y3276041D01*
X13602665Y3278733D01*
X13589000Y3279648D01*
X13575334Y3278733D01*
X13561923Y3276041D01*
X13548969Y3271672D01*
X13536676Y3265627D01*
X13525296Y3258007D01*
X13515035Y3248964D01*
X13505992Y3238703D01*
X13498372Y3227324D01*
X13492327Y3215030D01*
X13487958Y3202076D01*
X13485266Y3188665D01*
X13484351Y3175000D01*
X13485266Y3161334D01*
X13487958Y3147923D01*
X13492327Y3134969D01*
X13498372Y3122676D01*
X13505992Y3111296D01*
X13515035Y3101035D01*
X13525296Y3091992D01*
X13536676Y3084372D01*
X13548969Y3078327D01*
X13561923Y3073958D01*
X13575334Y3071266D01*
X13589000Y3070352D01*
X13602665Y3071266D01*
X13616076Y3073958D01*
X13629030Y3078327D01*
X13641324Y3084372D01*
X13651280Y3091078D01*
X13655344Y3092653D01*
X13659713Y3092399D01*
X13663523Y3090316D01*
X13666165Y3086862D01*
X13667079Y3082594D01*
X13667079Y3057906D01*
X13666317Y3053994D01*
X13664133Y3050692D01*
X13635024Y3021634D01*
X13631926Y3019501D01*
X13628268Y3018637D01*
X13624560Y3019196D01*
X13616076Y3022041D01*
X13602665Y3024733D01*
X13589000Y3025648D01*
X13575334Y3024733D01*
X13561923Y3022041D01*
X13548969Y3017672D01*
X13536676Y3011627D01*
X13525296Y3004007D01*
X13515035Y2994964D01*
X13505992Y2984703D01*
X13498372Y2973324D01*
X13492327Y2961030D01*
X13487907Y2948025D01*
X13486180Y2944012D01*
X13482929Y2941116D01*
X13478763Y2939846D01*
X13474446Y2940456D01*
X13470788Y2942793D01*
X12548362Y3865168D01*
X12546177Y3868470D01*
X12545415Y3872382D01*
X12545415Y4100779D01*
X12546177Y4104640D01*
X12548362Y4107942D01*
X12549987Y4109516D01*
X12555626Y4117594D01*
X12559741Y4126484D01*
X12562332Y4135983D01*
X12563144Y4145787D01*
X12562332Y4155541D01*
X12559741Y4165041D01*
X12555626Y4173982D01*
X12549987Y4182008D01*
X12548362Y4183583D01*
X12546177Y4186885D01*
X12545415Y4190796D01*
X12545415Y4904689D01*
X12546177Y4908550D01*
X12548362Y4911852D01*
X12551664Y4914036D01*
X12555575Y4914849D01*
X12559436Y4914036D01*
X12562738Y4911852D01*
X12580416Y4894173D01*
X12582448Y4891278D01*
X12583363Y4887874D01*
X12584023Y4879848D01*
X12586614Y4870348D01*
X12590729Y4861458D01*
X12596368Y4853381D01*
X12603327Y4846472D01*
X12611354Y4840833D01*
X12620294Y4836668D01*
X12629794Y4834128D01*
X12639548Y4833264D01*
X12649352Y4834128D01*
X12658852Y4836668D01*
X12667742Y4840833D01*
X12675819Y4846472D01*
X12682728Y4853381D01*
X12688366Y4861458D01*
X12692532Y4870348D01*
X12695072Y4879848D01*
X12695936Y4889652D01*
X12695072Y4899406D01*
X12692532Y4908905D01*
X12688366Y4917846D01*
X12682728Y4925872D01*
X12675819Y4932832D01*
X12667742Y4938471D01*
X12658852Y4942586D01*
X12649352Y4945176D01*
X12641326Y4945837D01*
X12637922Y4946751D01*
X12635026Y4948783D01*
X12491161Y5092649D01*
X12489129Y5095544D01*
X12488214Y5098948D01*
X12487503Y5106974D01*
X12484963Y5116474D01*
X12480798Y5125415D01*
X12475159Y5133441D01*
X12468250Y5140401D01*
X12460173Y5146040D01*
X12451283Y5150154D01*
X12441783Y5152745D01*
X12431979Y5153558D01*
X12422225Y5152745D01*
X12412726Y5150154D01*
X12403785Y5146040D01*
X12395758Y5140401D01*
X12388799Y5133441D01*
X12383160Y5125415D01*
X12379045Y5116474D01*
X12376454Y5106974D01*
X12375642Y5097221D01*
X12376454Y5087416D01*
X12377267Y5082082D01*
X12376353Y5078679D01*
X12374321Y5075783D01*
X12371425Y5073751D01*
X12365482Y5070957D01*
X12357404Y5065318D01*
X12350496Y5058410D01*
X12344857Y5050332D01*
X12340691Y5041442D01*
X12338151Y5031943D01*
X12337288Y5022138D01*
X12338151Y5012385D01*
X12340691Y5002885D01*
X12344857Y4993944D01*
X12350496Y4985918D01*
X12357404Y4978958D01*
X12365482Y4973320D01*
X12374372Y4969205D01*
X12383871Y4966614D01*
X12391898Y4965954D01*
X12395352Y4965039D01*
X12398197Y4963007D01*
X12465202Y4896002D01*
X12467437Y4892700D01*
X12468199Y4888839D01*
X12468199Y4190796D01*
X12467437Y4186885D01*
X12465202Y4183583D01*
X12463627Y4182008D01*
X12457988Y4173982D01*
X12453823Y4165041D01*
X12451283Y4155541D01*
X12450419Y4145787D01*
X12451283Y4135983D01*
X12453823Y4126484D01*
X12457988Y4117594D01*
X12463627Y4109516D01*
X12465202Y4107942D01*
X12467437Y4104640D01*
X12468199Y4100779D01*
X12468199Y3852672D01*
X12468961Y3844645D01*
X12471146Y3837432D01*
X12474752Y3830777D01*
X12479832Y3824528D01*
X13533983Y2770378D01*
X13536371Y2766618D01*
X13536879Y2762199D01*
X13535507Y2757982D01*
X13532408Y2754782D01*
X13524636Y2749448D01*
X13521385Y2747518D01*
X13517626Y2746908D01*
X13513917Y2747772D01*
X13510768Y2749905D01*
X11884304Y4376369D01*
X11882120Y4379620D01*
X11881358Y4383532D01*
X11882120Y4387443D01*
X11884304Y4390694D01*
X11887606Y4392930D01*
X11891518Y4393692D01*
X12113514Y4393692D01*
X12121540Y4394504D01*
X12128754Y4396689D01*
X12135459Y4400245D01*
X12141657Y4405325D01*
X12240310Y4504232D01*
X12245390Y4510430D01*
X12248946Y4517136D01*
X12251131Y4524248D01*
X12252147Y4526534D01*
X12256617Y4531461D01*
X12262256Y4539488D01*
X12266422Y4548428D01*
X12268962Y4557928D01*
X12269825Y4567682D01*
X12268962Y4577486D01*
X12266422Y4586986D01*
X12262256Y4595876D01*
X12256617Y4603953D01*
X12249708Y4610862D01*
X12241631Y4616500D01*
X12232741Y4620666D01*
X12223242Y4623206D01*
X12213437Y4624070D01*
X12203684Y4623206D01*
X12194184Y4620666D01*
X12185243Y4616500D01*
X12179452Y4612436D01*
X12175642Y4610811D01*
X12171578Y4610811D01*
X12167768Y4612436D01*
X12162739Y4615992D01*
X12153798Y4620107D01*
X12144298Y4622698D01*
X12136272Y4623358D01*
X12132868Y4624273D01*
X12129973Y4626305D01*
X11696293Y5059984D01*
X11694261Y5062880D01*
X11693347Y5066284D01*
X11693652Y5069840D01*
X11695734Y5073853D01*
X11699900Y5082794D01*
X11702440Y5092293D01*
X11703151Y5100320D01*
X11704066Y5103723D01*
X11706098Y5106619D01*
X11848439Y5249011D01*
X11851741Y5251196D01*
X11855653Y5251958D01*
X11895734Y5251958D01*
X11899392Y5251297D01*
X11902541Y5249367D01*
X11904827Y5246420D01*
X11905843Y5242864D01*
X11905589Y5239156D01*
X11904675Y5235956D01*
X11903862Y5226151D01*
X11904675Y5216398D01*
X11907266Y5206898D01*
X11911380Y5197957D01*
X11917019Y5189931D01*
X11918645Y5188356D01*
X11920829Y5185054D01*
X11921591Y5181142D01*
X11921591Y5038598D01*
X11922404Y5030571D01*
X11924588Y5023307D01*
X11928144Y5016652D01*
X11933275Y5010404D01*
X12254687Y4688992D01*
X12256719Y4686096D01*
X12257633Y4682693D01*
X12258294Y4674666D01*
X12260884Y4665167D01*
X12264999Y4656277D01*
X12270638Y4648200D01*
X12277598Y4641291D01*
X12285624Y4635652D01*
X12294565Y4631486D01*
X12304064Y4628946D01*
X12313818Y4628083D01*
X12323622Y4628946D01*
X12333122Y4631486D01*
X12342012Y4635652D01*
X12350089Y4641291D01*
X12356998Y4648200D01*
X12362637Y4656277D01*
X12366802Y4665167D01*
X12369342Y4674666D01*
X12370206Y4684471D01*
X12369342Y4694224D01*
X12366802Y4703724D01*
X12362637Y4712665D01*
X12356998Y4720691D01*
X12350089Y4727651D01*
X12342012Y4733290D01*
X12333122Y4737404D01*
X12323622Y4739995D01*
X12315596Y4740656D01*
X12312192Y4741570D01*
X12309297Y4743602D01*
X12001804Y5051094D01*
X11999569Y5054396D01*
X11998807Y5058257D01*
X11998807Y5181142D01*
X11999569Y5185054D01*
X12001804Y5188356D01*
X12003379Y5189931D01*
X12009018Y5197957D01*
X12013184Y5206898D01*
X12015724Y5216398D01*
X12016587Y5226151D01*
X12015724Y5235956D01*
X12014860Y5239156D01*
X12014555Y5242864D01*
X12015622Y5246420D01*
X12017857Y5249367D01*
X12021058Y5251297D01*
X12024664Y5251958D01*
X12512903Y5251958D01*
X12516815Y5251196D01*
X12520117Y5249011D01*
X12904470Y4864608D01*
X12906502Y4861712D01*
X12907416Y4858308D01*
X12908076Y4850282D01*
X12910667Y4840782D01*
X12914782Y4831892D01*
X12920421Y4823815D01*
X12927380Y4816906D01*
X12935407Y4811268D01*
X12944348Y4807102D01*
X12953847Y4804562D01*
X12963601Y4803698D01*
X12973405Y4804562D01*
X12982905Y4807102D01*
X12991795Y4811268D01*
X12999872Y4816906D01*
X13006781Y4823815D01*
X13012419Y4831892D01*
X13016585Y4840782D01*
X13019125Y4850282D01*
X13019989Y4860086D01*
X13019125Y4869840D01*
X13016585Y4879340D01*
X13012419Y4888280D01*
X13006781Y4896307D01*
X12999872Y4903266D01*
X12991795Y4908905D01*
X12982905Y4913020D01*
X12973405Y4915611D01*
X12965379Y4916271D01*
X12961975Y4917186D01*
X12959080Y4919218D01*
X12560757Y5317540D01*
X12554508Y5322620D01*
X12547854Y5326227D01*
X12540640Y5328412D01*
X12532614Y5329174D01*
X12257989Y5329174D01*
X12253925Y5330037D01*
X12250521Y5332476D01*
X12248388Y5336082D01*
X12247880Y5340248D01*
X12248642Y5349138D01*
X12247829Y5358942D01*
X12245238Y5368442D01*
X12241123Y5377332D01*
X12235484Y5385409D01*
X12228525Y5392318D01*
X12220498Y5397957D01*
X12211558Y5402122D01*
X12202058Y5404662D01*
X12192304Y5405526D01*
X12182500Y5404662D01*
X12173000Y5402122D01*
X12164110Y5397957D01*
X12156033Y5392318D01*
X12154458Y5390743D01*
X12151156Y5388508D01*
X12147296Y5387746D01*
X11794744Y5387746D01*
X11790832Y5388508D01*
X11787530Y5390743D01*
X11785955Y5392318D01*
X11777929Y5397957D01*
X11768988Y5402122D01*
X11759488Y5404662D01*
X11749735Y5405526D01*
X11739930Y5404662D01*
X11730431Y5402122D01*
X11721541Y5397957D01*
X11713464Y5392318D01*
X11706555Y5385409D01*
X11700916Y5377332D01*
X11696750Y5368442D01*
X11694210Y5358942D01*
X11693347Y5349138D01*
X11694210Y5339384D01*
X11696750Y5329885D01*
X11700916Y5320944D01*
X11706555Y5312918D01*
X11713464Y5305958D01*
X11721541Y5300319D01*
X11730431Y5296204D01*
X11739930Y5293614D01*
X11749735Y5292801D01*
X11758422Y5293563D01*
X11762536Y5293055D01*
X11766092Y5291023D01*
X11768531Y5287721D01*
X11769496Y5283708D01*
X11768785Y5279694D01*
X11766499Y5276240D01*
X11651488Y5161229D01*
X11648592Y5159197D01*
X11645188Y5158282D01*
X11637162Y5157571D01*
X11627662Y5155031D01*
X11618722Y5150866D01*
X11610695Y5145227D01*
X11603736Y5138318D01*
X11601907Y5135676D01*
X11598706Y5132730D01*
X11594490Y5131409D01*
X11590121Y5131968D01*
X11586413Y5134356D01*
X10642803Y6077966D01*
X10636554Y6083096D01*
X10629900Y6086652D01*
X10622635Y6088837D01*
X10614609Y6089650D01*
X9912604Y6089650D01*
X9904577Y6088837D01*
X9897313Y6086652D01*
X9890658Y6083096D01*
X9884410Y6077966D01*
X9711131Y5904687D01*
X9708286Y5902655D01*
X9704832Y5901740D01*
X9696805Y5901080D01*
X9687306Y5898489D01*
X9678416Y5894374D01*
X9670338Y5888736D01*
X9663430Y5881776D01*
X9657791Y5873750D01*
X9653625Y5864809D01*
X9651085Y5855309D01*
X9650222Y5845556D01*
X9651085Y5835751D01*
X9653625Y5826252D01*
X9657791Y5817362D01*
X9663430Y5809284D01*
X9670338Y5802376D01*
X9678416Y5796737D01*
X9687306Y5792571D01*
X9696805Y5790031D01*
X9706610Y5789168D01*
X9716363Y5790031D01*
X9718852Y5790692D01*
X9723221Y5790895D01*
X9727285Y5789218D01*
X9730282Y5785967D01*
X9731603Y5781751D01*
X9730994Y5777382D01*
X9728657Y5773674D01*
X9706813Y5751830D01*
X9703917Y5749798D01*
X9700514Y5748883D01*
X9692487Y5748223D01*
X9682988Y5745632D01*
X9674047Y5741517D01*
X9666020Y5735878D01*
X9659061Y5728919D01*
X9653422Y5720892D01*
X9649307Y5711952D01*
X9646716Y5702452D01*
X9645904Y5692698D01*
X9646716Y5682894D01*
X9649307Y5673394D01*
X9653422Y5664504D01*
X9659061Y5656427D01*
X9666020Y5649518D01*
X9674047Y5643880D01*
X9682988Y5639714D01*
X9692487Y5637174D01*
X9702241Y5636310D01*
X9712045Y5637174D01*
X9721545Y5639714D01*
X9730435Y5643880D01*
X9738512Y5649518D01*
X9745421Y5656427D01*
X9751060Y5664504D01*
X9755225Y5673394D01*
X9757765Y5682894D01*
X9758476Y5690920D01*
X9759391Y5694375D01*
X9761423Y5697220D01*
X10026396Y5962192D01*
X10029647Y5964428D01*
X10033558Y5965190D01*
X10251236Y5965190D01*
X10254894Y5964529D01*
X10258044Y5962548D01*
X10260330Y5959652D01*
X10261346Y5956096D01*
X10261092Y5952388D01*
X10260380Y5949899D01*
X10259568Y5940094D01*
X10260380Y5930341D01*
X10262971Y5920841D01*
X10267086Y5911900D01*
X10272725Y5903874D01*
X10279684Y5896914D01*
X10287711Y5891276D01*
X10296652Y5887161D01*
X10306151Y5884570D01*
X10314178Y5883910D01*
X10317581Y5882995D01*
X10320477Y5880963D01*
X10345724Y5855716D01*
X10348061Y5852007D01*
X10348620Y5847638D01*
X10347299Y5843473D01*
X10344353Y5840222D01*
X10340289Y5838545D01*
X10335869Y5838698D01*
X10328300Y5840780D01*
X10318496Y5841593D01*
X10308742Y5840780D01*
X10299242Y5838190D01*
X10290302Y5834075D01*
X10282275Y5828436D01*
X10275316Y5821476D01*
X10269677Y5813450D01*
X10265562Y5804509D01*
X10262971Y5795010D01*
X10262311Y5786983D01*
X10261396Y5783580D01*
X10259364Y5780684D01*
X9973360Y5494680D01*
X9968230Y5488432D01*
X9964674Y5481777D01*
X9962489Y5474563D01*
X9961676Y5466537D01*
X9961676Y4262424D01*
X9960914Y4258564D01*
X9958730Y4255262D01*
X9957104Y4253687D01*
X9951466Y4245610D01*
X9947351Y4236720D01*
X9944760Y4227220D01*
X9943947Y4217416D01*
X9944760Y4207662D01*
X9947351Y4198162D01*
X9951466Y4189222D01*
X9957104Y4181195D01*
X9964064Y4174236D01*
X9972090Y4168597D01*
X9981031Y4164482D01*
X9990531Y4161891D01*
X10000284Y4161078D01*
X10010089Y4161891D01*
X10019588Y4164482D01*
X10028478Y4168597D01*
X10036556Y4174236D01*
X10043464Y4181195D01*
X10049103Y4189222D01*
X10053269Y4198162D01*
X10055809Y4207662D01*
X10056672Y4217416D01*
X10055809Y4227220D01*
X10053269Y4236720D01*
X10049103Y4245610D01*
X10043464Y4253687D01*
X10041890Y4255262D01*
X10039654Y4258564D01*
X10038892Y4262424D01*
X10038892Y5446826D01*
X10039654Y5450738D01*
X10041890Y5454040D01*
X10112806Y5524957D01*
X10116515Y5527294D01*
X10120884Y5527903D01*
X10125100Y5526582D01*
X10128300Y5523585D01*
X10133380Y5516321D01*
X10135006Y5514746D01*
X10137190Y5511444D01*
X10137952Y5507583D01*
X10137952Y4439920D01*
X10138765Y4431893D01*
X10140950Y4424680D01*
X10144506Y4418025D01*
X10149636Y4411776D01*
X10199370Y4362043D01*
X10201656Y4358487D01*
X10202316Y4354271D01*
X10201198Y4350207D01*
X10198506Y4346905D01*
X10194747Y4345025D01*
X10183825Y4342180D01*
X10174935Y4338066D01*
X10166908Y4332427D01*
X10159949Y4325467D01*
X10154310Y4317441D01*
X10150195Y4308500D01*
X10147604Y4299000D01*
X10146792Y4289247D01*
X10147604Y4279442D01*
X10150195Y4269943D01*
X10154310Y4261053D01*
X10159288Y4253992D01*
X10160762Y4250791D01*
X10161066Y4247286D01*
X10160152Y4243882D01*
X10158120Y4240987D01*
X10003739Y4086606D01*
X10000843Y4084574D01*
X9997440Y4083659D01*
X9989413Y4082948D01*
X9979914Y4080408D01*
X9970973Y4076242D01*
X9962946Y4070604D01*
X9955987Y4063695D01*
X9950348Y4055618D01*
X9946233Y4046728D01*
X9943642Y4037228D01*
X9942830Y4027424D01*
X9943642Y4017670D01*
X9946233Y4008170D01*
X9950348Y3999229D01*
X9955987Y3991203D01*
X9962946Y3984244D01*
X9970973Y3978605D01*
X9979914Y3974490D01*
X9989413Y3971899D01*
X9999167Y3971086D01*
X10008971Y3971899D01*
X10018471Y3974490D01*
X10027361Y3978605D01*
X10035438Y3984244D01*
X10042347Y3991203D01*
X10047986Y3999229D01*
X10052151Y4008170D01*
X10054691Y4017670D01*
X10055402Y4025696D01*
X10056317Y4029100D01*
X10058349Y4031996D01*
X10230104Y4203750D01*
X10235184Y4209999D01*
X10238790Y4216654D01*
X10240975Y4223867D01*
X10241737Y4231894D01*
X10241737Y4244238D01*
X10242499Y4248099D01*
X10244734Y4251401D01*
X10246309Y4252976D01*
X10251948Y4261053D01*
X10256113Y4269892D01*
X10258907Y4280814D01*
X10260787Y4284624D01*
X10264089Y4287316D01*
X10268204Y4288434D01*
X10272369Y4287774D01*
X10275925Y4285437D01*
X10487812Y4073601D01*
X10489844Y4070705D01*
X10490758Y4067301D01*
X10491419Y4059275D01*
X10494010Y4049776D01*
X10498124Y4040835D01*
X10503763Y4032808D01*
X10510723Y4025849D01*
X10518749Y4020210D01*
X10527690Y4016095D01*
X10537190Y4013504D01*
X10546943Y4012692D01*
X10556748Y4013504D01*
X10566247Y4016095D01*
X10575137Y4020210D01*
X10583214Y4025849D01*
X10590123Y4032808D01*
X10595762Y4040835D01*
X10599928Y4049776D01*
X10602468Y4059275D01*
X10603331Y4069029D01*
X10602468Y4078833D01*
X10599928Y4088333D01*
X10595762Y4097223D01*
X10590123Y4105300D01*
X10583214Y4112209D01*
X10575137Y4117848D01*
X10566247Y4122013D01*
X10556748Y4124553D01*
X10548721Y4125264D01*
X10545318Y4126179D01*
X10542422Y4128211D01*
X10218166Y4452416D01*
X10215930Y4455718D01*
X10215168Y4459630D01*
X10215168Y5507583D01*
X10215930Y5511444D01*
X10218166Y5514746D01*
X10219740Y5516321D01*
X10225379Y5524398D01*
X10229545Y5533288D01*
X10232085Y5542788D01*
X10232948Y5552592D01*
X10232085Y5562346D01*
X10229545Y5571845D01*
X10225379Y5580786D01*
X10219740Y5588812D01*
X10212832Y5595772D01*
X10205567Y5600852D01*
X10202570Y5604052D01*
X10201249Y5608269D01*
X10201859Y5612638D01*
X10204196Y5616346D01*
X10313974Y5726074D01*
X10316870Y5728106D01*
X10320274Y5729020D01*
X10328300Y5729732D01*
X10337800Y5732272D01*
X10346690Y5736437D01*
X10354767Y5742076D01*
X10361676Y5748985D01*
X10367314Y5757062D01*
X10371480Y5765952D01*
X10374020Y5775452D01*
X10374884Y5785256D01*
X10374020Y5795010D01*
X10371988Y5802630D01*
X10371785Y5806998D01*
X10373461Y5811062D01*
X10376712Y5814060D01*
X10380929Y5815380D01*
X10385298Y5814822D01*
X10389006Y5812434D01*
X11353342Y4848047D01*
X11355730Y4844338D01*
X11356289Y4839970D01*
X11354968Y4835804D01*
X11352022Y4832553D01*
X11347196Y4829200D01*
X11340236Y4822240D01*
X11334597Y4814214D01*
X11330482Y4805273D01*
X11327892Y4795774D01*
X11327079Y4786020D01*
X11327638Y4779568D01*
X11327180Y4775504D01*
X11325148Y4771948D01*
X11321897Y4769510D01*
X11317935Y4768494D01*
X11308486Y4768088D01*
X11299037Y4766056D01*
X11290096Y4762500D01*
X11281867Y4757420D01*
X11274653Y4751070D01*
X11268557Y4743551D01*
X11263884Y4735118D01*
X11260683Y4726025D01*
X11259058Y4716526D01*
X11259058Y4706874D01*
X11260683Y4697374D01*
X11263884Y4688281D01*
X11268557Y4679848D01*
X11274653Y4672330D01*
X11281867Y4665980D01*
X11290096Y4660900D01*
X11299037Y4657344D01*
X11308486Y4655312D01*
X11313972Y4655058D01*
X11317630Y4654194D01*
X11320729Y4652111D01*
X11451894Y4520895D01*
X11454130Y4517593D01*
X11454892Y4513681D01*
X11454892Y4389018D01*
X11454130Y4385106D01*
X11451894Y4381804D01*
X11435029Y4364888D01*
X11431930Y4362805D01*
X11428272Y4361942D01*
X11422786Y4361688D01*
X11413337Y4359656D01*
X11404396Y4356100D01*
X11396167Y4351020D01*
X11388953Y4344670D01*
X11382857Y4337151D01*
X11378184Y4328718D01*
X11374983Y4319625D01*
X11373358Y4310126D01*
X11373358Y4300474D01*
X11374983Y4290974D01*
X11378184Y4281881D01*
X11382857Y4273448D01*
X11388953Y4265930D01*
X11396167Y4259580D01*
X11404396Y4254500D01*
X11413337Y4250944D01*
X11422786Y4248912D01*
X11432438Y4248454D01*
X11441988Y4249724D01*
X11451183Y4252518D01*
X11459819Y4256887D01*
X11467592Y4262628D01*
X11474246Y4269587D01*
X11479631Y4277563D01*
X11483644Y4286351D01*
X11486032Y4295698D01*
X11486743Y4304080D01*
X11487658Y4307484D01*
X11489690Y4310430D01*
X11520424Y4341164D01*
X11525554Y4347362D01*
X11529110Y4354068D01*
X11531295Y4361281D01*
X11532108Y4369308D01*
X11532108Y4533392D01*
X11531803Y4536541D01*
X11532260Y4540656D01*
X11534292Y4544263D01*
X11537543Y4546752D01*
X11541556Y4547717D01*
X11545620Y4547006D01*
X11549075Y4544720D01*
X13199313Y2894533D01*
X13201548Y2891231D01*
X13202310Y2887319D01*
X13202310Y397205D01*
X13201599Y393496D01*
X13199618Y390347D01*
X13196620Y388061D01*
X13187934Y383794D01*
X13176453Y376123D01*
X13166039Y366979D01*
X13156895Y356565D01*
X13149173Y345033D01*
X13143077Y332638D01*
X13138607Y319532D01*
X13135914Y305917D01*
X13135000Y292100D01*
X13135914Y278282D01*
X13138607Y264718D01*
X13143077Y251561D01*
X13149173Y239166D01*
X13156895Y227634D01*
X13166039Y217220D01*
X13176453Y208076D01*
X13187934Y200406D01*
X13200380Y194259D01*
X13213486Y189839D01*
X13227050Y187147D01*
X13240918Y186232D01*
X13254736Y187147D01*
X13268299Y189839D01*
X13281406Y194259D01*
X13293851Y200406D01*
X13305332Y208076D01*
X13315746Y217220D01*
X13324890Y227634D01*
X13332612Y239166D01*
X13338708Y251561D01*
X13343178Y264718D01*
X13345871Y278282D01*
X13346785Y292100D01*
X13345871Y305917D01*
X13343178Y319532D01*
X13338708Y332638D01*
X13332612Y345033D01*
X13324890Y356565D01*
X13315746Y366979D01*
X13305332Y376123D01*
X13293851Y383794D01*
X13285165Y388061D01*
X13282168Y390296D01*
X13280186Y393496D01*
X13279526Y397205D01*
X13279526Y2847441D01*
X13280288Y2851302D01*
X13282472Y2854604D01*
X13285774Y2856788D01*
X13289686Y2857601D01*
X13293547Y2856788D01*
X13296849Y2854604D01*
X13481659Y2669794D01*
X13483742Y2666796D01*
X13484606Y2663291D01*
X13485266Y2653334D01*
X13487958Y2639923D01*
X13492327Y2626969D01*
X13498372Y2614676D01*
X13505992Y2603296D01*
X13515035Y2593035D01*
X13525296Y2583992D01*
X13536676Y2576372D01*
X13548969Y2570327D01*
X13561923Y2565958D01*
X13575334Y2563266D01*
X13589000Y2562352D01*
X13602665Y2563266D01*
X13616076Y2565958D01*
X13629030Y2570327D01*
X13641324Y2576372D01*
X13646048Y2579522D01*
X13650061Y2581148D01*
X13654430Y2580894D01*
X13658291Y2578811D01*
X13660882Y2575356D01*
X13661847Y2571089D01*
X13661847Y2508910D01*
X13660882Y2504643D01*
X13658291Y2501188D01*
X13654430Y2499106D01*
X13650061Y2498852D01*
X13646048Y2500477D01*
X13641324Y2503627D01*
X13629030Y2509672D01*
X13616076Y2514041D01*
X13602665Y2516733D01*
X13589000Y2517648D01*
X13575334Y2516733D01*
X13561923Y2514041D01*
X13548969Y2509672D01*
X13536676Y2503627D01*
X13525296Y2496007D01*
X13515035Y2486964D01*
X13505992Y2476703D01*
X13498372Y2465324D01*
X13492327Y2453030D01*
X13487958Y2440076D01*
X13485266Y2426665D01*
X13484351Y2413000D01*
X13485266Y2399334D01*
X13487958Y2385923D01*
X13492327Y2372969D01*
X13498372Y2360676D01*
X13505992Y2349296D01*
X13515035Y2339035D01*
X13525296Y2329992D01*
X13536676Y2322372D01*
X13548969Y2316327D01*
X13560856Y2312314D01*
X13564565Y2310079D01*
X13567003Y2306574D01*
X13567765Y2302357D01*
X13566698Y2298192D01*
X13564057Y2294839D01*
X13561771Y2292908D01*
X13556945Y2287066D01*
X13553389Y2280412D01*
X13550138Y2269236D01*
X13547851Y2266289D01*
X13544702Y2264308D01*
X13541044Y2263648D01*
X13510818Y2263648D01*
X13504519Y2262936D01*
X13499033Y2261006D01*
X13494156Y2257958D01*
X13490041Y2253843D01*
X13486993Y2248966D01*
X13485063Y2243480D01*
X13484351Y2237181D01*
X13484351Y2080818D01*
X13485063Y2074519D01*
X13486993Y2069033D01*
X13490041Y2064156D01*
X13494156Y2060041D01*
X13499033Y2056993D01*
X13504519Y2055063D01*
X13510818Y2054352D01*
X13667181Y2054352D01*
X13673480Y2055063D01*
X13678966Y2056993D01*
X13683843Y2060041D01*
X13687958Y2064156D01*
X13691006Y2069033D01*
X13692936Y2074519D01*
X13693648Y2080818D01*
X13693648Y2237181D01*
X13692936Y2243480D01*
X13691006Y2248966D01*
X13687958Y2253843D01*
X13683843Y2257958D01*
X13681557Y2259380D01*
X13678865Y2261819D01*
X13677239Y2265070D01*
X13676833Y2268677D01*
X13677696Y2272182D01*
X13679779Y2275179D01*
X13727379Y2322779D01*
X13732510Y2329027D01*
X13736066Y2335682D01*
X13738250Y2342896D01*
X13739063Y2350922D01*
X13739063Y2729636D01*
X13738250Y2737662D01*
X13736066Y2744927D01*
X13732510Y2751582D01*
X13727379Y2757830D01*
X13682167Y2803042D01*
X13675918Y2808173D01*
X13669263Y2811729D01*
X13661999Y2813913D01*
X13653973Y2814726D01*
X13651331Y2814726D01*
X13647166Y2815640D01*
X13643711Y2818180D01*
X13641628Y2821940D01*
X13641273Y2826207D01*
X13642695Y2830220D01*
X13645692Y2833319D01*
X13652703Y2837992D01*
X13662964Y2847035D01*
X13672007Y2857296D01*
X13679627Y2868676D01*
X13685672Y2880969D01*
X13690041Y2893923D01*
X13692733Y2907334D01*
X13693648Y2921000D01*
X13692733Y2934665D01*
X13690041Y2948076D01*
X13687196Y2956560D01*
X13686637Y2960268D01*
X13687501Y2963926D01*
X13689634Y2967024D01*
X13732662Y3010052D01*
X13737742Y3016300D01*
X13741349Y3022955D01*
X13743533Y3030169D01*
X13744295Y3038195D01*
X13744295Y4519523D01*
X13745057Y4523384D01*
X13747292Y4526686D01*
X13750544Y4528870D01*
X13754455Y4529683D01*
X13959281Y4529988D01*
X13963192Y4529226D01*
X13966494Y4527042D01*
X13968679Y4523740D01*
X13969441Y4519828D01*
X13969441Y-201218D01*
X13968526Y-237236D01*
X13965732Y-272440D01*
X13961110Y-307390D01*
X13954658Y-342087D01*
X13946428Y-376428D01*
X13936370Y-410260D01*
X13924584Y-443534D01*
X13911072Y-476097D01*
X13895882Y-507949D01*
X13879017Y-538988D01*
X13860576Y-569061D01*
X13840561Y-598119D01*
X13819073Y-626110D01*
X13796111Y-652932D01*
X13771829Y-678535D01*
X13746226Y-702818D01*
X13719352Y-725728D01*
X13691362Y-747217D01*
X13662253Y-767181D01*
X13632180Y-785622D01*
X13601141Y-802436D01*
X13569289Y-817625D01*
X13536676Y-831087D01*
X13503401Y-842873D01*
X13469569Y-852881D01*
X13435279Y-861110D01*
X13400582Y-867511D01*
X13365581Y-872134D01*
X13330377Y-874877D01*
X13294918Y-875792D01*
G37*

%LPC*%
G36*
X6287262Y197154D02*
G01*
X6293866Y200406D01*
X6305346Y208076D01*
X6315760Y217220D01*
X6324904Y227634D01*
X6332626Y239166D01*
X6335877Y245770D01*
X6287262Y245770D01*
G37*
G36*
X6194552Y197154D02*
G01*
X6194552Y245770D01*
X6145936Y245770D01*
X6149187Y239166D01*
X6156909Y227634D01*
X6166053Y217220D01*
X6176467Y208076D01*
X6187948Y200406D01*
G37*
G36*
X6287262Y338429D02*
G01*
X6335877Y338429D01*
X6332626Y345033D01*
X6324904Y356565D01*
X6315760Y366979D01*
X6305346Y376123D01*
X6293866Y383794D01*
X6287262Y387045D01*
G37*
G36*
X6145936Y338429D02*
G01*
X6194552Y338429D01*
X6194552Y387045D01*
X6187948Y383794D01*
X6176467Y376123D01*
X6166053Y366979D01*
X6156909Y356565D01*
X6149187Y345033D01*
G37*
G36*
X9421012Y1294180D02*
G01*
X9430766Y1295044D01*
X9440265Y1297584D01*
X9449206Y1301750D01*
X9457232Y1307388D01*
X9464192Y1314297D01*
X9469831Y1322374D01*
X9473946Y1331264D01*
X9476536Y1340764D01*
X9477349Y1350568D01*
X9476536Y1360322D01*
X9473946Y1369822D01*
X9469831Y1378762D01*
X9464192Y1386789D01*
X9462566Y1388364D01*
X9460382Y1391666D01*
X9459620Y1395577D01*
X9459620Y1703933D01*
X9460382Y1707845D01*
X9462566Y1711147D01*
X9464192Y1712722D01*
X9469831Y1720748D01*
X9473946Y1729689D01*
X9476536Y1739188D01*
X9477349Y1748942D01*
X9476536Y1758746D01*
X9473946Y1768246D01*
X9469831Y1777136D01*
X9464192Y1785213D01*
X9457232Y1792122D01*
X9449206Y1797761D01*
X9440265Y1801926D01*
X9430766Y1804466D01*
X9421012Y1805330D01*
X9411208Y1804466D01*
X9401708Y1801926D01*
X9392818Y1797761D01*
X9384741Y1792122D01*
X9377832Y1785213D01*
X9372193Y1777136D01*
X9368028Y1768246D01*
X9365488Y1758746D01*
X9364624Y1748942D01*
X9365488Y1739188D01*
X9368028Y1729689D01*
X9372193Y1720748D01*
X9377832Y1712722D01*
X9379407Y1711147D01*
X9381642Y1707845D01*
X9382404Y1703933D01*
X9382404Y1395577D01*
X9381642Y1391666D01*
X9379407Y1388364D01*
X9377832Y1386789D01*
X9372193Y1378762D01*
X9368028Y1369822D01*
X9365488Y1360322D01*
X9364624Y1350568D01*
X9365488Y1340764D01*
X9368028Y1331264D01*
X9372193Y1322374D01*
X9377832Y1314297D01*
X9384741Y1307388D01*
X9392818Y1301750D01*
X9401708Y1297584D01*
X9411208Y1295044D01*
G37*
G36*
X10976305Y1564538D02*
G01*
X11096294Y1564538D01*
X11102644Y1565249D01*
X11108080Y1567129D01*
X11113008Y1570228D01*
X11117072Y1574292D01*
X11120170Y1579219D01*
X11122050Y1584655D01*
X11122812Y1591005D01*
X11122812Y1710994D01*
X11122050Y1717344D01*
X11120170Y1722780D01*
X11117072Y1727707D01*
X11113008Y1731772D01*
X11108080Y1734870D01*
X11102644Y1736801D01*
X11096294Y1737512D01*
X10976305Y1737512D01*
X10969955Y1736801D01*
X10964519Y1734870D01*
X10959592Y1731772D01*
X10955528Y1727707D01*
X10952429Y1722780D01*
X10950549Y1717344D01*
X10949838Y1710994D01*
X10949838Y1591005D01*
X10950549Y1584655D01*
X10952429Y1579219D01*
X10955528Y1574292D01*
X10959592Y1570228D01*
X10964519Y1567129D01*
X10969955Y1565249D01*
G37*
G36*
X11484305Y1564538D02*
G01*
X11604294Y1564538D01*
X11610644Y1565249D01*
X11616080Y1567129D01*
X11621008Y1570228D01*
X11625072Y1574292D01*
X11628170Y1579219D01*
X11630050Y1584655D01*
X11630812Y1591005D01*
X11630812Y1710994D01*
X11630050Y1717344D01*
X11628170Y1722780D01*
X11625072Y1727707D01*
X11621008Y1731772D01*
X11616080Y1734870D01*
X11610644Y1736801D01*
X11604294Y1737512D01*
X11484305Y1737512D01*
X11477955Y1736801D01*
X11472519Y1734870D01*
X11467592Y1731772D01*
X11463528Y1727707D01*
X11460429Y1722780D01*
X11458549Y1717344D01*
X11457838Y1710994D01*
X11457838Y1591005D01*
X11458549Y1584655D01*
X11460429Y1579219D01*
X11463528Y1574292D01*
X11467592Y1570228D01*
X11472519Y1567129D01*
X11477955Y1565249D01*
G37*
G36*
X11230305Y1564538D02*
G01*
X11350294Y1564538D01*
X11356644Y1565249D01*
X11362080Y1567129D01*
X11367008Y1570228D01*
X11371072Y1574292D01*
X11374170Y1579219D01*
X11376050Y1584655D01*
X11376812Y1591005D01*
X11376812Y1710994D01*
X11376050Y1717344D01*
X11374170Y1722780D01*
X11371072Y1727707D01*
X11367008Y1731772D01*
X11362080Y1734870D01*
X11356644Y1736801D01*
X11350294Y1737512D01*
X11230305Y1737512D01*
X11223955Y1736801D01*
X11218519Y1734870D01*
X11213592Y1731772D01*
X11209528Y1727707D01*
X11206429Y1722780D01*
X11204549Y1717344D01*
X11203838Y1710994D01*
X11203838Y1591005D01*
X11204549Y1584655D01*
X11206429Y1579219D01*
X11209528Y1574292D01*
X11213592Y1570228D01*
X11218519Y1567129D01*
X11223955Y1565249D01*
G37*
G36*
X11484305Y2072538D02*
G01*
X11604294Y2072538D01*
X11610644Y2073249D01*
X11616080Y2075129D01*
X11621008Y2078228D01*
X11625072Y2082292D01*
X11628170Y2087219D01*
X11630050Y2092655D01*
X11630812Y2099005D01*
X11630812Y2218994D01*
X11630050Y2225344D01*
X11628170Y2230780D01*
X11625072Y2235708D01*
X11621008Y2239772D01*
X11616080Y2242870D01*
X11610644Y2244801D01*
X11604294Y2245512D01*
X11593068Y2245512D01*
X11589207Y2246274D01*
X11585905Y2248458D01*
X11583670Y2251760D01*
X11582908Y2255672D01*
X11582908Y3626053D01*
X11583670Y3629914D01*
X11585905Y3633215D01*
X11589207Y3635400D01*
X11593068Y3636213D01*
X11596979Y3635400D01*
X11600281Y3633215D01*
X12667538Y2565958D01*
X12669520Y2563063D01*
X12670434Y2559659D01*
X12670129Y2556154D01*
X12668656Y2552954D01*
X12662408Y2544064D01*
X12658242Y2535174D01*
X12655702Y2525674D01*
X12654838Y2515870D01*
X12655702Y2506116D01*
X12658242Y2496616D01*
X12662408Y2487676D01*
X12668046Y2479649D01*
X12674955Y2472690D01*
X12683032Y2467051D01*
X12691922Y2462936D01*
X12701422Y2460345D01*
X12711226Y2459532D01*
X12720980Y2460345D01*
X12730480Y2462936D01*
X12739420Y2467051D01*
X12747447Y2472690D01*
X12754406Y2479649D01*
X12760045Y2487676D01*
X12764160Y2496616D01*
X12766751Y2506116D01*
X12767564Y2515870D01*
X12766751Y2525674D01*
X12764160Y2535174D01*
X12760045Y2544064D01*
X12754406Y2552141D01*
X12752781Y2553716D01*
X12750596Y2557018D01*
X12749834Y2560878D01*
X12749834Y2576372D01*
X12749022Y2584399D01*
X12746837Y2591612D01*
X12743281Y2598267D01*
X12738150Y2604516D01*
X12286437Y3056229D01*
X12284100Y3059887D01*
X12283490Y3064205D01*
X12284760Y3068370D01*
X12287656Y3071622D01*
X12291618Y3073349D01*
X12295987Y3073298D01*
X12302236Y3071825D01*
X12315647Y3070453D01*
X12329109Y3070910D01*
X12342368Y3073146D01*
X12355271Y3077159D01*
X12367463Y3082798D01*
X12378842Y3090062D01*
X12389154Y3098749D01*
X12398197Y3108756D01*
X12405817Y3119882D01*
X12411862Y3131921D01*
X12416282Y3144621D01*
X12418974Y3157829D01*
X12419888Y3171291D01*
X12418974Y3184753D01*
X12416282Y3197961D01*
X12411862Y3210661D01*
X12405817Y3222701D01*
X12398197Y3233826D01*
X12389154Y3243834D01*
X12378842Y3252520D01*
X12367463Y3259785D01*
X12355271Y3265424D01*
X12342368Y3269437D01*
X12329109Y3271672D01*
X12315647Y3272129D01*
X12302236Y3270758D01*
X12289129Y3267659D01*
X12276531Y3262782D01*
X12264694Y3256330D01*
X12253874Y3248355D01*
X12244171Y3238957D01*
X12235840Y3228390D01*
X12228982Y3216808D01*
X12223699Y3204362D01*
X12220143Y3191408D01*
X12218314Y3178048D01*
X12218314Y3164535D01*
X12220143Y3151174D01*
X12220803Y3148736D01*
X12221006Y3144316D01*
X12219381Y3140252D01*
X12216130Y3137255D01*
X12211913Y3135934D01*
X12207544Y3136493D01*
X12203836Y3138830D01*
X10511129Y4831588D01*
X10509097Y4834432D01*
X10508183Y4837887D01*
X10507472Y4845913D01*
X10504932Y4855413D01*
X10500766Y4864303D01*
X10495127Y4872380D01*
X10488218Y4879289D01*
X10480141Y4884928D01*
X10471251Y4889093D01*
X10461752Y4891633D01*
X10451947Y4892497D01*
X10442194Y4891633D01*
X10432694Y4889093D01*
X10423753Y4884928D01*
X10415727Y4879289D01*
X10408767Y4872380D01*
X10403128Y4864303D01*
X10399014Y4855413D01*
X10396423Y4845913D01*
X10395610Y4836109D01*
X10396423Y4826355D01*
X10399014Y4816856D01*
X10403128Y4807915D01*
X10408767Y4799888D01*
X10411612Y4797044D01*
X10413847Y4793742D01*
X10414609Y4789830D01*
X10413847Y4785969D01*
X10411612Y4782667D01*
X10406481Y4777536D01*
X10400842Y4769510D01*
X10396728Y4760569D01*
X10394137Y4751070D01*
X10393324Y4741316D01*
X10394137Y4731512D01*
X10396728Y4722012D01*
X10400842Y4713122D01*
X10406481Y4705045D01*
X10413441Y4698136D01*
X10421467Y4692497D01*
X10430408Y4688332D01*
X10439908Y4685792D01*
X10447934Y4685080D01*
X10451338Y4684166D01*
X10454233Y4682134D01*
X11502745Y3633673D01*
X11504930Y3630371D01*
X11505692Y3626459D01*
X11505692Y2255672D01*
X11504930Y2251760D01*
X11502745Y2248458D01*
X11499443Y2246274D01*
X11495532Y2245512D01*
X11484305Y2245512D01*
X11477955Y2244801D01*
X11472519Y2242870D01*
X11467592Y2239772D01*
X11463528Y2235708D01*
X11460429Y2230780D01*
X11458549Y2225344D01*
X11457838Y2218994D01*
X11457838Y2099005D01*
X11458549Y2092655D01*
X11460429Y2087219D01*
X11463528Y2082292D01*
X11467592Y2078228D01*
X11472519Y2075129D01*
X11477955Y2073249D01*
G37*
G36*
X10976305Y2072538D02*
G01*
X11096294Y2072538D01*
X11102644Y2073249D01*
X11108080Y2075129D01*
X11113008Y2078228D01*
X11117072Y2082292D01*
X11120170Y2087219D01*
X11122050Y2092655D01*
X11122812Y2099005D01*
X11122812Y2158898D01*
X11123574Y2162810D01*
X11125758Y2166112D01*
X11129060Y2168296D01*
X11132972Y2169058D01*
X11136833Y2168296D01*
X11140135Y2166112D01*
X11174171Y2132076D01*
X11180419Y2126945D01*
X11187074Y2123389D01*
X11198199Y2120138D01*
X11201196Y2117852D01*
X11203127Y2114702D01*
X11203838Y2111044D01*
X11203838Y2099005D01*
X11204549Y2092655D01*
X11206429Y2087219D01*
X11209528Y2082292D01*
X11213592Y2078228D01*
X11218519Y2075129D01*
X11223955Y2073249D01*
X11230305Y2072538D01*
X11350294Y2072538D01*
X11356644Y2073249D01*
X11362080Y2075129D01*
X11367008Y2078228D01*
X11371072Y2082292D01*
X11374170Y2087219D01*
X11376050Y2092655D01*
X11376812Y2099005D01*
X11376812Y2218994D01*
X11376050Y2225344D01*
X11374170Y2230780D01*
X11371072Y2235708D01*
X11367008Y2239772D01*
X11362080Y2242870D01*
X11356644Y2244801D01*
X11350294Y2245512D01*
X11230305Y2245512D01*
X11223955Y2244801D01*
X11218519Y2242870D01*
X11213592Y2239772D01*
X11209528Y2235708D01*
X11204041Y2226411D01*
X11200739Y2224024D01*
X11196777Y2223109D01*
X11192764Y2223820D01*
X11189360Y2226056D01*
X8999372Y4416094D01*
X8993124Y4421174D01*
X8986469Y4424781D01*
X8979204Y4426966D01*
X8971178Y4427728D01*
X8870188Y4427728D01*
X8866276Y4428490D01*
X8862974Y4430725D01*
X8861399Y4432300D01*
X8853373Y4437938D01*
X8844432Y4442104D01*
X8834932Y4444644D01*
X8825179Y4445508D01*
X8815374Y4444644D01*
X8805875Y4442104D01*
X8796985Y4437938D01*
X8788908Y4432300D01*
X8781999Y4425391D01*
X8776360Y4417314D01*
X8772194Y4408424D01*
X8769654Y4398924D01*
X8768791Y4389120D01*
X8769654Y4379366D01*
X8772194Y4369866D01*
X8776360Y4360926D01*
X8781999Y4352899D01*
X8788908Y4345940D01*
X8796985Y4340301D01*
X8805875Y4336186D01*
X8815374Y4333595D01*
X8825179Y4332782D01*
X8834932Y4333595D01*
X8844432Y4336186D01*
X8853373Y4340301D01*
X8861399Y4345940D01*
X8862974Y4347565D01*
X8866276Y4349750D01*
X8870188Y4350512D01*
X8951518Y4350512D01*
X8955379Y4349750D01*
X8958681Y4347565D01*
X9406940Y3899306D01*
X9409074Y3896106D01*
X9409887Y3892296D01*
X9409176Y3888435D01*
X9407093Y3885133D01*
X9403943Y3882898D01*
X9393682Y3878224D01*
X9385655Y3872585D01*
X9384080Y3871010D01*
X9380778Y3868775D01*
X9376918Y3868013D01*
X9063634Y3868013D01*
X9059773Y3868775D01*
X9056471Y3871010D01*
X8101888Y4825593D01*
X8099856Y4828489D01*
X8098942Y4831892D01*
X8098231Y4839919D01*
X8095691Y4849418D01*
X8091525Y4858359D01*
X8085886Y4866386D01*
X8078978Y4873345D01*
X8070900Y4878984D01*
X8062010Y4883099D01*
X8052511Y4885690D01*
X8042706Y4886502D01*
X8032953Y4885690D01*
X8023453Y4883099D01*
X8014512Y4878984D01*
X8006486Y4873345D01*
X7999526Y4866386D01*
X7993888Y4858359D01*
X7989773Y4849418D01*
X7987182Y4839919D01*
X7986369Y4830165D01*
X7987182Y4820361D01*
X7989773Y4810861D01*
X7993888Y4801971D01*
X7999526Y4793894D01*
X8006486Y4786985D01*
X8014512Y4781346D01*
X8023453Y4777181D01*
X8032953Y4774641D01*
X8040979Y4773930D01*
X8044383Y4773015D01*
X8047278Y4770983D01*
X9015780Y3802481D01*
X9022029Y3797350D01*
X9028684Y3793794D01*
X9035948Y3791610D01*
X9043974Y3790797D01*
X9376918Y3790797D01*
X9380778Y3790035D01*
X9384080Y3787851D01*
X9385655Y3786225D01*
X9393732Y3780586D01*
X9402622Y3776472D01*
X9412122Y3773881D01*
X9421926Y3773068D01*
X9431680Y3773881D01*
X9441180Y3776472D01*
X9450120Y3780586D01*
X9458147Y3786225D01*
X9465106Y3793185D01*
X9470694Y3801211D01*
X9475368Y3811473D01*
X9477654Y3814622D01*
X9480956Y3816705D01*
X9484766Y3817416D01*
X9488576Y3816604D01*
X9491827Y3814419D01*
X11043412Y2262835D01*
X11045596Y2259533D01*
X11046358Y2255672D01*
X11045596Y2251760D01*
X11043412Y2248458D01*
X11040110Y2246274D01*
X11036198Y2245512D01*
X10976305Y2245512D01*
X10969955Y2244801D01*
X10964519Y2242870D01*
X10959592Y2239772D01*
X10955528Y2235708D01*
X10952429Y2230780D01*
X10950549Y2225344D01*
X10949838Y2218994D01*
X10949838Y2099005D01*
X10950549Y2092655D01*
X10952429Y2087219D01*
X10955528Y2082292D01*
X10959592Y2078228D01*
X10964519Y2075129D01*
X10969955Y2073249D01*
G37*
G36*
X12315647Y2320493D02*
G01*
X12329109Y2320950D01*
X12342368Y2323185D01*
X12355271Y2327148D01*
X12367463Y2332837D01*
X12378842Y2340102D01*
X12389154Y2348788D01*
X12398197Y2358796D01*
X12405817Y2369870D01*
X12411862Y2381910D01*
X12416282Y2394661D01*
X12418974Y2407869D01*
X12419888Y2421280D01*
X12418974Y2434742D01*
X12416282Y2447950D01*
X12411862Y2460701D01*
X12405817Y2472740D01*
X12398197Y2483815D01*
X12389154Y2493822D01*
X12378842Y2502509D01*
X12367463Y2509774D01*
X12355271Y2515463D01*
X12342368Y2519426D01*
X12329109Y2521661D01*
X12315647Y2522118D01*
X12302236Y2520797D01*
X12289129Y2517648D01*
X12276531Y2512822D01*
X12264694Y2506319D01*
X12253874Y2498344D01*
X12244171Y2488996D01*
X12235840Y2478379D01*
X12228982Y2466797D01*
X12223699Y2454402D01*
X12220143Y2441397D01*
X12218314Y2428036D01*
X12218314Y2414574D01*
X12220143Y2401214D01*
X12223699Y2388209D01*
X12228982Y2375814D01*
X12235840Y2364232D01*
X12244171Y2353614D01*
X12253874Y2344267D01*
X12264694Y2336292D01*
X12276531Y2329789D01*
X12289129Y2324963D01*
X12302236Y2321814D01*
G37*
G36*
X13543280Y3335121D02*
G01*
X13543280Y3383279D01*
X13495121Y3383279D01*
X13498372Y3376676D01*
X13505992Y3365296D01*
X13515035Y3355035D01*
X13525296Y3345992D01*
X13536676Y3338372D01*
G37*
G36*
X13495121Y3474720D02*
G01*
X13543280Y3474720D01*
X13543280Y3522878D01*
X13536676Y3519627D01*
X13525296Y3512007D01*
X13515035Y3502964D01*
X13505992Y3492703D01*
X13498372Y3481324D01*
G37*

%LPD*%
D10*
X11544312Y2159012D02*
G01*
X11544312Y3646667D01*
X10449669Y4741303D01*
X11960212Y5226161D02*
G01*
X11960212Y5038079D01*
X12313828Y4684458D01*
X12192297Y5349148D02*
G01*
X11749719Y5349148D01*
X9706594Y5845540D02*
G01*
X9912088Y6051029D01*
X10615129Y6051029D01*
X11622669Y5043487D01*
X11658203Y5043487D01*
X12134527Y4567163D01*
X9999179Y4027436D02*
G01*
X10203146Y4231401D01*
X10203146Y4289231D01*
X10318513Y5785246D02*
G01*
X10000294Y5467032D01*
X10000294Y4217428D01*
X12711211Y2515882D02*
G01*
X12711211Y2576865D01*
X10451962Y4836119D01*
X10315922Y5940107D02*
G01*
X11582895Y4673127D01*
X11582895Y4623165D01*
X13539055Y2667012D01*
X13589012Y2667012D01*
X8042722Y4830155D02*
G01*
X9043454Y3829415D01*
X9421911Y3829415D01*
X10546953Y4069041D02*
G01*
X10176568Y4439424D01*
X10176568Y5552579D01*
X12506797Y4145775D02*
G01*
X12506797Y4909022D01*
X12393663Y5022148D01*
X13589012Y2159012D02*
G01*
X13589012Y2265667D01*
X12506797Y4145775D02*
G01*
X12506797Y3852174D01*
X13582860Y2776103D01*
X13654496Y2776103D01*
X13700447Y2730159D01*
X13700447Y2350429D01*
X13615677Y2265667D01*
X13589012Y2265667D01*
X11383429Y4786007D02*
G01*
X11383429Y4765004D01*
X13240903Y2907525D01*
X13240903Y292112D01*
X9420994Y1350558D02*
G01*
X9420994Y1748952D01*
X13589012Y2921012D02*
G01*
X13705705Y3037700D01*
X13705705Y5862005D01*
X11646928Y5102057D02*
G01*
X11835444Y5290578D01*
X12533114Y5290578D01*
X12963611Y4860076D01*
X11290312Y2159012D02*
G01*
X11201821Y2159012D01*
X11201821Y2159012D02*
G01*
X8971694Y4389132D01*
X8825174Y4389132D01*
X12639563Y4889642D02*
G01*
X12431996Y5097208D01*
X9702253Y5692688D02*
G01*
X10013355Y6003787D01*
X10604710Y6003787D01*
X12052300Y4556198D01*
X12052300Y4495800D01*
X11641472Y4647425D02*
G01*
X11856590Y4432300D01*
X12113950Y4432300D01*
X12213455Y4531804D01*
X12213455Y4567697D01*
X11772900Y4610100D02*
G01*
X11633200Y4749800D01*
X11315700Y4711700D02*
G01*
X11493500Y4533900D01*
X11493500Y4368800D01*
X11430000Y4305300D01*
D11*
G01*
X6240906Y292100D03*
G01*
X13240893Y292100D03*
D12*
G01*
X13589000Y3429000D03*
G01*
X13589000Y3175000D03*
G01*
X13589000Y2921000D03*
G01*
X13589000Y2667000D03*
G01*
X13589000Y2413000D03*
D13*
G01*
X13589000Y2159000D03*
D14*
G01*
X11036300Y2159000D03*
G01*
X11036300Y1651000D03*
G01*
X11290300Y1651000D03*
G01*
X11290300Y2159000D03*
G01*
X11544300Y1651000D03*
G01*
X11544300Y2159000D03*
D15*
G01*
X10449686Y4741290D03*
G01*
X12313843Y4684445D03*
G01*
X11960225Y5226151D03*
G01*
X11749735Y5349138D03*
G01*
X12192304Y5349138D03*
G01*
X9706609Y5845530D03*
G01*
X12134545Y4567148D03*
G01*
X12213463Y4567681D03*
G01*
X11641480Y4647412D03*
G01*
X10203154Y4289221D03*
G01*
X9999192Y4027423D03*
G01*
X10000310Y4217415D03*
G01*
X10318521Y5785230D03*
G01*
X12711226Y2515870D03*
G01*
X10451972Y4836109D03*
G01*
X10315930Y5940094D03*
G01*
X8042732Y4830140D03*
G01*
X9421926Y3829405D03*
G01*
X10546968Y4069029D03*
G01*
X10176586Y5552567D03*
G01*
X12506807Y4145762D03*
G01*
X12393675Y5022138D03*
G01*
X11383441Y4785995D03*
G01*
X9421012Y1350543D03*
G01*
X9421012Y1748942D03*
G01*
X13705713Y5861989D03*
G01*
X12963626Y4860061D03*
G01*
X11646941Y5102047D03*
G01*
X8825179Y4389120D03*
G01*
X12639573Y4889627D03*
G01*
X12432004Y5097195D03*
G01*
X12052300Y4495800D03*
G01*
X9702266Y5692673D03*
D17*
G01*
X11430000Y4305300D03*
G01*
X11772900Y4610100D03*
G01*
X11633200Y4749800D03*
G01*
X11315700Y4711700D03*
M02*
