G04 Layer: TopSolderMaskLayer*
G04 EasyEDA v6.5.54, 2026-04-17 11:21:59*
G04 b7d0612ef2f4465c8c83642826453f38,81a6330f3d4149d2af66a0b9843494eb,10*
G04 Gerber Generator version 0.2*
G04 Scale: 100 percent, Rotated: No, Reflected: No *
G04 Dimensions in millimeters *
G04 leading zeros omitted , absolute positions ,4 integer and 5 decimal *
%FSLAX45Y45*%
%MOMM*%

%AMMACRO1*4,1,8,-0.4711,-0.4508,-0.5008,-0.421,-0.5008,0.4211,-0.4711,0.4508,0.471,0.4508,0.5008,0.4211,0.5008,-0.421,0.471,-0.4508,-0.4711,-0.4508,0*%
%AMMACRO2*4,1,8,-0.4211,-0.5008,-0.4508,-0.471,-0.4508,0.4711,-0.4211,0.5008,0.421,0.5008,0.4508,0.4711,0.4508,-0.471,0.421,-0.5008,-0.4211,-0.5008,0*%
%AMMACRO3*4,1,8,-1.1707,-2.05,-1.2,-2.0207,-1.2,2.0207,-1.1707,2.05,1.1707,2.05,1.2,2.0207,1.2,-2.0207,1.1707,-2.05,-1.1707,-2.05,0*%
%AMMACRO4*4,1,8,-1.1707,-2.25,-1.2,-2.2207,-1.2,2.2207,-1.1707,2.25,1.1707,2.25,1.2,2.2207,1.2,-2.2207,1.1707,-2.25,-1.1707,-2.25,0*%
%AMMACRO5*4,1,8,-0.3211,-0.2508,-0.3508,-0.221,-0.3508,0.2211,-0.3211,0.2508,0.321,0.2508,0.3508,0.2211,0.3508,-0.221,0.321,-0.2508,-0.3211,-0.2508,0*%
%AMMACRO6*4,1,8,-0.5211,-0.4258,-0.5508,-0.396,-0.5508,0.3961,-0.5211,0.4258,0.521,0.4258,0.5508,0.3961,0.5508,-0.396,0.521,-0.4258,-0.5211,-0.4258,0*%
%AMMACRO7*4,1,8,-0.8085,-0.8382,-0.8382,-0.8084,-0.8382,0.8085,-0.8085,0.8382,0.8084,0.8382,0.8382,0.8085,0.8382,-0.8084,0.8084,-0.8382,-0.8085,-0.8382,0*%
%AMMACRO8*4,1,8,-0.5211,-0.5008,-0.5508,-0.471,-0.5508,0.471,-0.5211,0.5008,0.521,0.5008,0.5508,0.471,0.5508,-0.471,0.521,-0.5008,-0.5211,-0.5008,0*%
%AMMACRO9*4,1,8,-0.646,-0.4008,-0.6758,-0.371,-0.6758,0.3711,-0.646,0.4008,0.646,0.4008,0.6758,0.3711,0.6758,-0.371,0.646,-0.4008,-0.646,-0.4008,0*%
%AMMACRO10*4,1,8,-0.4531,-0.454,-0.4828,-0.4243,-0.4828,0.4243,-0.4531,0.454,0.453,0.454,0.4828,0.4243,0.4828,-0.4243,0.453,-0.454,-0.4531,-0.454,0*%
%AMMACRO11*4,1,8,-0.4243,-0.4828,-0.454,-0.453,-0.454,0.4531,-0.4243,0.4828,0.4243,0.4828,0.454,0.4531,0.454,-0.453,0.4243,-0.4828,-0.4243,-0.4828,0*%
%AMMACRO12*4,1,8,-0.6268,-0.6566,-0.6566,-0.6268,-0.6566,0.6268,-0.6268,0.6566,0.6268,0.6566,0.6566,0.6268,0.6566,-0.6268,0.6268,-0.6566,-0.6268,-0.6566,0*%
%AMMACRO13*4,1,8,-0.7011,-0.6658,-0.7308,-0.636,-0.7308,0.6361,-0.7011,0.6658,0.701,0.6658,0.7308,0.6361,0.7308,-0.636,0.701,-0.6658,-0.7011,-0.6658,0*%
%AMMACRO14*4,1,8,-0.5211,-1.05,-0.5504,-1.0207,-0.5504,1.0207,-0.5211,1.05,0.5211,1.05,0.5504,1.0207,0.5504,-1.0207,0.5211,-1.05,-0.5211,-1.05,0*%
%AMMACRO15*4,1,8,-1.0207,-0.5504,-1.05,-0.5211,-1.05,0.5211,-1.0207,0.5504,1.0207,0.5504,1.05,0.5211,1.05,-0.5211,1.0207,-0.5504,-1.0207,-0.5504,0*%
%AMMACRO16*4,1,8,-1.7707,-1.8,-1.8,-1.7707,-1.8,1.7707,-1.7707,1.8,1.7707,1.8,1.8,1.7707,1.8,-1.7707,1.7707,-1.8,-1.7707,-1.8,0*%
%AMMACRO17*4,1,8,-1.2711,-0.6008,-1.3008,-0.571,-1.3008,0.5711,-1.2711,0.6008,1.271,0.6008,1.3008,0.5711,1.3008,-0.571,1.271,-0.6008,-1.2711,-0.6008,0*%
%AMMACRO18*4,1,8,-1.1911,-1.8508,-1.2208,-1.821,-1.2208,1.8211,-1.1911,1.8508,1.191,1.8508,1.2208,1.8211,1.2208,-1.821,1.191,-1.8508,-1.1911,-1.8508,0*%
%AMMACRO19*4,1,8,-0.4736,-0.1908,-0.5033,-0.161,-0.5033,0.1611,-0.4736,0.1908,0.4735,0.1908,0.5033,0.1611,0.5033,-0.161,0.4735,-0.1908,-0.4736,-0.1908,0*%
%AMMACRO20*4,1,8,-0.1611,-0.5033,-0.1908,-0.4735,-0.1908,0.4736,-0.1611,0.5033,0.161,0.5033,0.1908,0.4736,0.1908,-0.4735,0.161,-0.5033,-0.1611,-0.5033,0*%
%AMMACRO21*4,1,8,-1.6961,-1.7258,-1.7258,-1.696,-1.7258,1.6961,-1.6961,1.7258,1.696,1.7258,1.7258,1.6961,1.7258,-1.696,1.696,-1.7258,-1.6961,-1.7258,0*%
%AMMACRO22*4,1,8,-0.9711,-1.1008,-1.0008,-1.071,-1.0008,1.0711,-0.9711,1.1008,0.971,1.1008,1.0008,1.0711,1.0008,-1.071,0.971,-1.1008,-0.9711,-1.1008,0*%
%AMMACRO23*4,1,8,-0.7831,-0.2508,-0.8128,-0.221,-0.8128,0.2211,-0.7831,0.2508,0.783,0.2508,0.8128,0.2211,0.8128,-0.221,0.783,-0.2508,-0.7831,-0.2508,0*%
%ADD10MACRO1*%
%ADD11MACRO2*%
%ADD12MACRO3*%
%ADD13MACRO4*%
%ADD14C,1.7016*%
%ADD15MACRO5*%
%ADD16C,0.0109*%
%ADD17MACRO6*%
%ADD18C,1.6764*%
%ADD19MACRO7*%
%ADD20MACRO8*%
%ADD21MACRO9*%
%ADD22MACRO10*%
%ADD23MACRO11*%
%ADD24MACRO12*%
%ADD25MACRO13*%
%ADD26MACRO14*%
%ADD27MACRO15*%
%ADD28MACRO16*%
%ADD29MACRO17*%
%ADD30MACRO18*%
%ADD31MACRO19*%
%ADD32MACRO20*%
%ADD33MACRO21*%
%ADD34O,0.675589X2.502103*%
%ADD35MACRO22*%
%ADD36MACRO23*%

%LPD*%
D10*
G01*
X9358376Y4484220D03*
G01*
X9358376Y4624219D03*
G01*
X9610852Y4472792D03*
G01*
X9610852Y4612792D03*
G01*
X9598152Y4104492D03*
G01*
X9598152Y4244492D03*
D11*
G01*
X9455000Y1841500D03*
G01*
X9594999Y1841500D03*
G01*
X9455000Y1587500D03*
G01*
X9594999Y1587500D03*
D10*
G01*
X11974576Y4332119D03*
G01*
X11974576Y4192120D03*
G01*
X9866376Y5627220D03*
G01*
X9866376Y5767219D03*
G01*
X12279376Y4319419D03*
G01*
X12279376Y4179420D03*
G01*
X10120376Y5639920D03*
G01*
X10120376Y5779919D03*
G01*
X10426700Y1873100D03*
G01*
X10426700Y2013099D03*
G01*
X10693400Y1873100D03*
G01*
X10693400Y2013099D03*
D12*
G01*
X12319000Y1981300D03*
D13*
G01*
X12319000Y3581299D03*
D14*
G01*
X6240906Y292100D03*
G01*
X13240893Y292100D03*
D15*
G01*
X11378882Y5151120D03*
G01*
X11528869Y5151120D03*
G01*
X12673393Y4775200D03*
G01*
X12523406Y4775200D03*
G01*
X12510706Y5067300D03*
G01*
X12660693Y5067300D03*
D17*
G01*
X11558431Y4871719D03*
G01*
X11323925Y4871719D03*
D18*
G01*
X13589000Y3429000D03*
G01*
X13589000Y3175000D03*
G01*
X13589000Y2921000D03*
G01*
X13589000Y2667000D03*
G01*
X13589000Y2413000D03*
D19*
G01*
X13589000Y2159000D03*
D20*
G01*
X9804400Y1756509D03*
G01*
X9804400Y1926508D03*
D21*
G01*
X10109276Y4217415D03*
G01*
X10109276Y4027425D03*
G01*
X10309275Y4122421D03*
G01*
X10109276Y4611115D03*
G01*
X10109276Y4421125D03*
G01*
X10309275Y4516121D03*
D22*
G01*
X9358376Y4261244D03*
G01*
X9358376Y4110595D03*
D23*
G01*
X9449675Y2095500D03*
G01*
X9600324Y2095500D03*
D22*
G01*
X9345676Y5621895D03*
G01*
X9345676Y5772544D03*
G01*
X9599676Y5772544D03*
G01*
X9599676Y5621895D03*
G01*
X11479276Y5456795D03*
G01*
X11479276Y5607444D03*
G01*
X11745976Y5456795D03*
G01*
X11745976Y5607444D03*
G01*
X12253976Y5469495D03*
G01*
X12253976Y5620144D03*
G01*
X11987276Y5469495D03*
G01*
X11987276Y5620144D03*
G01*
X10425176Y5785244D03*
G01*
X10425176Y5634595D03*
G01*
X9853676Y4540644D03*
G01*
X9853676Y4389995D03*
D24*
G01*
X11036300Y2159000D03*
G01*
X11036300Y1651000D03*
G01*
X11290300Y1651000D03*
G01*
X11290300Y2159000D03*
G01*
X11544300Y1651000D03*
G01*
X11544300Y2159000D03*
D25*
G01*
X10895076Y5331519D03*
G01*
X10895076Y4894520D03*
G01*
X10895076Y4506019D03*
G01*
X10895076Y4069020D03*
D26*
G01*
X7153694Y4978996D03*
G01*
X7280694Y4978996D03*
G01*
X7407694Y4978996D03*
G01*
X7534694Y4978996D03*
G01*
X7661694Y4978996D03*
G01*
X7788694Y4978996D03*
G01*
X7915694Y4978996D03*
D27*
G01*
X8975316Y4257027D03*
G01*
X8975316Y4384027D03*
G01*
X8975316Y4511027D03*
G01*
X8975316Y4130027D03*
G01*
X8975316Y4003027D03*
G01*
X8975316Y3876027D03*
D26*
G01*
X7153694Y3148995D03*
G01*
X7280694Y3148995D03*
G01*
X7407694Y3148995D03*
D27*
G01*
X8975316Y3622027D03*
G01*
X8975316Y3495027D03*
D26*
G01*
X8804694Y3148995D03*
G01*
X8677694Y3148995D03*
G01*
X8550694Y3148995D03*
D27*
G01*
X8975316Y3749027D03*
D26*
G01*
X8042694Y4978996D03*
G01*
X8169694Y4978996D03*
G01*
X8296694Y4978996D03*
G01*
X8423694Y4978996D03*
G01*
X8550694Y4978996D03*
G01*
X8677694Y4978996D03*
G01*
X8804694Y4978996D03*
D27*
G01*
X8975316Y4638027D03*
D26*
G01*
X8423694Y3148995D03*
G01*
X8296694Y3148995D03*
G01*
X8169694Y3148995D03*
G01*
X8042694Y3148995D03*
G01*
X7915694Y3148995D03*
G01*
X7788694Y3148995D03*
G01*
X7661694Y3148995D03*
G01*
X7534694Y3148995D03*
D28*
G01*
X7924558Y3914838D03*
D29*
G01*
X9085393Y1586102D03*
G01*
X9085393Y1816100D03*
G01*
X9085393Y2046097D03*
D30*
G01*
X8491397Y1816100D03*
D31*
G01*
X12301220Y4747132D03*
G01*
X12301220Y4797120D03*
G01*
X12301220Y4847132D03*
G01*
X12301220Y4897119D03*
G01*
X12301220Y4947132D03*
G01*
X12301220Y4997119D03*
G01*
X12301220Y5047132D03*
D32*
G01*
X12213462Y5134864D03*
G01*
X12163475Y5134864D03*
G01*
X12113463Y5134864D03*
G01*
X12063476Y5134864D03*
G01*
X12013463Y5134864D03*
G01*
X11963476Y5134864D03*
G01*
X11913463Y5134864D03*
D31*
G01*
X11825731Y5047132D03*
G01*
X11825731Y4997119D03*
G01*
X11825731Y4947132D03*
G01*
X11825731Y4897119D03*
G01*
X11825731Y4847132D03*
G01*
X11825731Y4797120D03*
G01*
X11825731Y4747132D03*
D32*
G01*
X11913463Y4659376D03*
G01*
X11963476Y4659376D03*
G01*
X12013463Y4659376D03*
G01*
X12063476Y4659376D03*
G01*
X12113463Y4659376D03*
G01*
X12163475Y4659376D03*
G01*
X12213462Y4659376D03*
D33*
G01*
X12063475Y4897120D03*
D34*
G01*
X10375900Y2471369D03*
G01*
X10502900Y2471369D03*
G01*
X10629900Y2471369D03*
G01*
X10756900Y2471369D03*
G01*
X10883900Y2471369D03*
G01*
X11010900Y2471369D03*
G01*
X11137900Y2471369D03*
G01*
X11264900Y2471369D03*
G01*
X10375900Y3421430D03*
G01*
X10502900Y3421430D03*
G01*
X10629900Y3421430D03*
G01*
X10756900Y3421430D03*
G01*
X10883900Y3421430D03*
G01*
X11010900Y3421430D03*
G01*
X11137900Y3421430D03*
G01*
X11264900Y3421430D03*
D35*
G01*
X13283449Y5483701D03*
G01*
X13283449Y4422303D03*
G01*
X13703447Y4422280D03*
G01*
X13703447Y5483698D03*
D36*
G01*
X13245947Y5082999D03*
G01*
X13245947Y5018001D03*
G01*
X13245947Y4953000D03*
G01*
X13245947Y4888001D03*
G01*
X13245947Y4823000D03*
M02*
