G04 Layer: TopLayer*
G04 EasyEDA v6.5.54, 2026-04-17 11:21:59*
G04 b7d0612ef2f4465c8c83642826453f38,81a6330f3d4149d2af66a0b9843494eb,10*
G04 Gerber Generator version 0.2*
G04 Scale: 100 percent, Rotated: No, Reflected: No *
G04 Dimensions in millimeters *
G04 leading zeros omitted , absolute positions ,4 integer and 5 decimal *
%FSLAX45Y45*%
%MOMM*%

%AMMACRO1*21,1,$1,$2,0,0,$3*%
%ADD10C,0.2540*%
%ADD11R,0.9000X0.8000*%
%ADD12R,0.8000X0.9000*%
%ADD13R,2.3000X4.0000*%
%ADD14R,2.3000X4.4000*%
%ADD15R,0.0104X4.4000*%
%ADD16R,0.6000X0.4000*%
%ADD17R,1.0000X0.7500*%
%ADD18R,1.0000X0.8999*%
%ADD19R,1.2500X0.7000*%
%ADD20MACRO1,0.864X0.8065X0.0000*%
%ADD21R,0.8640X0.8065*%
%ADD22MACRO1,0.864X0.8065X-90.0000*%
%ADD23MACRO1,1.36X1.23X0.0000*%
%ADD24R,1.0008X2.0000*%
%ADD25R,2.0000X1.0008*%
%ADD26R,3.5000X3.5000*%
%ADD27R,2.5000X1.1000*%
%ADD28MACRO1,3.6X2.34X-90.0000*%
%ADD29R,0.9050X0.2800*%
%ADD30R,0.2800X0.9050*%
%ADD31R,3.3500X3.3500*%
%ADD32O,0.573989X2.400503*%
%ADD33R,1.9000X2.1000*%
%ADD34R,1.5240X0.4000*%
%ADD35C,1.6000*%
%ADD36C,1.5748*%
%ADD37R,1.5748X1.5748*%
%ADD38R,1.2116X1.2116*%
%ADD39C,0.6100*%
%ADD40C,0.6200*%

%LPD*%
D10*
X7788719Y4851107D02*
G01*
X7898523Y4741303D01*
X10449674Y4741303D01*
X7788719Y4979022D02*
G01*
X7788719Y4851107D01*
X11544312Y2159012D02*
G01*
X11455819Y2159012D01*
X11455819Y2159012D02*
G01*
X11293640Y2321191D01*
X10851629Y2321191D01*
X10820412Y2352408D01*
X10820412Y2584386D01*
X10502912Y2901886D01*
X10502912Y3421443D01*
X11963463Y4586236D02*
G01*
X11962625Y4585398D01*
X11884266Y4585398D01*
X11746268Y4723396D01*
X11746268Y5070563D01*
X11901868Y5226164D01*
X11960212Y5226164D01*
X11963463Y4659388D02*
G01*
X11963463Y4586236D01*
X12301207Y4747145D02*
G01*
X12301207Y4697082D01*
X12313831Y4684458D01*
X12301207Y4797132D02*
G01*
X12301207Y4747145D01*
X10502912Y2471381D02*
G01*
X10502912Y2423223D01*
X10767123Y2159012D01*
X11036312Y2159012D01*
X11987288Y5620143D02*
G01*
X11987288Y5551919D01*
X12063463Y5134876D02*
G01*
X12063463Y5543969D01*
X12055513Y5551919D01*
X11987288Y5551919D01*
X11745988Y5456796D02*
G01*
X11745988Y5352884D01*
X11749722Y5349151D01*
X12213450Y5134876D02*
G01*
X12213450Y5327992D01*
X12192292Y5349151D01*
X11745988Y5456796D02*
G01*
X11479288Y5456796D01*
X9599688Y5621896D02*
G01*
X9599688Y5553646D01*
X7661719Y4979022D02*
G01*
X7661719Y5106936D01*
X7661719Y5106936D02*
G01*
X7973021Y5418239D01*
X9464281Y5418239D01*
X9599688Y5553646D01*
X12113450Y4659388D02*
G01*
X12113450Y4586236D01*
X12113450Y4586236D02*
G01*
X12115457Y4586236D01*
X12134532Y4567161D01*
X9599688Y5772543D02*
G01*
X9599688Y5840793D01*
X9706597Y5845543D02*
G01*
X9604438Y5845543D01*
X9599688Y5840793D01*
X12213450Y4567694D02*
G01*
X12213450Y4659388D01*
X10991659Y4647425D02*
G01*
X10818634Y4647425D01*
X10592346Y4421136D01*
X10109288Y4421136D01*
X10425188Y5566346D02*
G01*
X10991659Y4999875D01*
X10991659Y4647425D01*
X10991659Y4647425D02*
G01*
X11641467Y4647425D01*
X10425188Y5634596D02*
G01*
X10425188Y5566346D01*
X10109288Y4611128D02*
G01*
X10018864Y4611128D01*
X9853688Y4540643D02*
G01*
X9853688Y4608893D01*
X9853688Y4608893D02*
G01*
X10016629Y4608893D01*
X10018864Y4611128D01*
X10203141Y4289234D02*
G01*
X9886200Y4289234D01*
X9853688Y4321746D01*
X10018864Y4027436D02*
G01*
X9999179Y4027436D01*
X10109263Y4027436D02*
G01*
X10018864Y4027436D01*
X9853688Y4389996D02*
G01*
X9853688Y4321746D01*
X10425188Y5785243D02*
G01*
X10318508Y5785243D01*
X10109263Y4217428D02*
G01*
X10000297Y4217428D01*
X8296719Y4851107D02*
G01*
X8311705Y4836121D01*
X10451960Y4836121D01*
X8296719Y4979022D02*
G01*
X8296719Y4851107D01*
X12711214Y2515882D02*
G01*
X13486142Y2515882D01*
X13589012Y2413012D01*
X10315917Y5940107D02*
G01*
X8113890Y5940107D01*
X7280719Y5106936D01*
X7280719Y4979022D02*
G01*
X7280719Y5106936D01*
X13589012Y3175012D02*
G01*
X12934607Y3829418D01*
X9421914Y3829418D01*
X8042719Y4830152D02*
G01*
X8042719Y4979022D01*
X12301207Y4947145D02*
G01*
X12374384Y4947145D01*
X13141845Y4888014D02*
G01*
X13081647Y4948212D01*
X12375451Y4948212D01*
X12374384Y4947145D01*
X12731330Y4775212D02*
G01*
X12750761Y4755781D01*
X13323709Y4755781D01*
X13350252Y4782324D01*
X13350252Y4887836D01*
X13350074Y4888014D01*
X13245960Y4888014D02*
G01*
X13141845Y4888014D01*
X12673418Y4775212D02*
G01*
X12731330Y4775212D01*
X13245960Y4888014D02*
G01*
X13350074Y4888014D01*
X9866388Y5501652D02*
G01*
X9924046Y5501652D01*
X10531157Y4894541D01*
X10531157Y4894541D02*
G01*
X10531157Y4647577D01*
X10399712Y4516132D01*
X8804719Y5106936D02*
G01*
X9471672Y5106936D01*
X9866388Y5501652D01*
X9866388Y5576049D02*
G01*
X9866388Y5501652D01*
X9866388Y5627230D02*
G01*
X9866388Y5576049D01*
X10895088Y4894541D02*
G01*
X10531157Y4894541D01*
X8804719Y4979022D02*
G01*
X8804719Y5106936D01*
X10309288Y4516132D02*
G01*
X10399712Y4516132D01*
X10120388Y5639930D02*
G01*
X10120388Y5572010D01*
X10120388Y5572010D02*
G01*
X10157142Y5572010D01*
X10176573Y5552579D01*
X10546956Y4069041D02*
G01*
X10453077Y4069041D01*
X10399687Y4122432D01*
X10895088Y4069041D02*
G01*
X10546956Y4069041D01*
X9598164Y4104500D02*
G01*
X9598164Y4090530D01*
X9598164Y4087355D02*
G01*
X9598164Y4090530D01*
X9598164Y4087355D02*
G01*
X9598164Y4036580D01*
X10354475Y4122432D02*
G01*
X10309263Y4122432D01*
X10354475Y4122432D02*
G01*
X10399687Y4122432D01*
X9358388Y4036580D02*
G01*
X9358388Y4110596D01*
X7407719Y3276917D02*
G01*
X7478433Y3347631D01*
X9039923Y3347631D01*
X9358388Y3666096D01*
X9358388Y4036580D01*
X9358388Y4036580D02*
G01*
X9598164Y4036580D01*
X10399687Y4122432D02*
G01*
X10224198Y3946944D01*
X9687801Y3946944D01*
X9598164Y4036580D01*
X7407719Y3149003D02*
G01*
X7407719Y3276917D01*
X12352312Y4179430D02*
G01*
X12385967Y4145775D01*
X12506794Y4145775D01*
X9358388Y4316996D02*
G01*
X9358388Y4484230D01*
X9358388Y4261243D02*
G01*
X9358388Y4316996D01*
X9358388Y4316996D02*
G01*
X9787013Y4316996D01*
X9951224Y4152785D01*
X10182720Y4152785D01*
X10222064Y4192130D01*
X11974588Y4192130D01*
X12301207Y5022151D02*
G01*
X12393663Y5022151D01*
X12279388Y4179430D02*
G01*
X12352312Y4179430D01*
X12301207Y5022151D02*
G01*
X12301207Y5047145D01*
X12301207Y4997132D02*
G01*
X12301207Y5022151D01*
X12011063Y4192130D02*
G01*
X11974588Y4192130D01*
X12011063Y4192130D02*
G01*
X12047512Y4192130D01*
X9431312Y4484230D02*
G01*
X9442742Y4472800D01*
X9610864Y4472800D01*
X8776550Y1972068D02*
G01*
X8932481Y1816112D01*
X8491410Y2024037D02*
G01*
X8724557Y2024037D01*
X8776550Y1972068D01*
X8776550Y1972068D02*
G01*
X8983205Y2178723D01*
X9497021Y2178723D01*
X9523082Y2152662D01*
X9523082Y2048395D01*
X9674288Y1897189D01*
X9674288Y1677403D01*
X9674288Y1677403D02*
G01*
X9544875Y1677403D01*
X9454984Y1587512D01*
X10693412Y1677403D02*
G01*
X9674288Y1677403D01*
X12253988Y5469496D02*
G01*
X12253988Y5401271D01*
X12301207Y5047145D02*
G01*
X12301207Y5354053D01*
X12253988Y5401271D01*
X9008960Y1816112D02*
G01*
X9085414Y1816112D01*
X9358388Y4484230D02*
G01*
X9431312Y4484230D01*
X12047512Y4192130D02*
G01*
X12060212Y4179430D01*
X12279388Y4179430D01*
X11036312Y1651012D02*
G01*
X10719803Y1651012D01*
X10693412Y1677403D01*
X10693412Y1677403D02*
G01*
X10693412Y1805190D01*
X13589012Y2159012D02*
G01*
X13482358Y2159012D01*
X13482358Y2159012D02*
G01*
X12974358Y1651012D01*
X11544312Y1651012D01*
X10693412Y1873110D02*
G01*
X10693412Y1805190D01*
X11290312Y1651012D02*
G01*
X11036312Y1651012D01*
X11544312Y1651012D02*
G01*
X11290312Y1651012D01*
X9008960Y1816112D02*
G01*
X8932481Y1816112D01*
X8491410Y1816112D02*
G01*
X8491410Y2024037D01*
X11323942Y4806327D02*
G01*
X11363109Y4806327D01*
X11383429Y4786007D01*
X11323942Y4871732D02*
G01*
X11323942Y4806327D01*
X9454984Y1841512D02*
G01*
X9454984Y1768589D01*
X9454984Y1768589D02*
G01*
X9440633Y1768589D01*
X9420999Y1748955D01*
X13240905Y292112D02*
G01*
X12182462Y1350556D01*
X9420999Y1350556D01*
X9454984Y1859749D02*
G01*
X9454984Y1841512D01*
X9454984Y1859749D02*
G01*
X9454984Y1914436D01*
X9332023Y2046109D02*
G01*
X9381426Y2095512D01*
X9085414Y2046109D02*
G01*
X9332023Y2046109D01*
X9332023Y2046109D02*
G01*
X9332023Y2037397D01*
X9454984Y1914436D01*
X9449676Y2095512D02*
G01*
X9381426Y2095512D01*
X10629912Y3484511D02*
G01*
X10726712Y3581311D01*
X11928182Y3581311D01*
X12176086Y3333407D01*
X12319012Y3333407D01*
X10629912Y3421443D02*
G01*
X10629912Y3484511D01*
X10629912Y3484511D02*
G01*
X10541774Y3572649D01*
X10345712Y3572649D01*
X10307104Y3534041D01*
X10307104Y2200643D01*
X10426712Y2081034D01*
X10426712Y2013115D02*
G01*
X10426712Y2081034D01*
X12319012Y3581311D02*
G01*
X12319012Y3333407D01*
X7924584Y3914838D02*
G01*
X7721663Y3914838D01*
X7153719Y3149003D02*
G01*
X7153719Y3276917D01*
X7153719Y3276917D02*
G01*
X7721663Y3844861D01*
X7721663Y3914838D01*
X7924584Y3914838D02*
G01*
X8127479Y3914838D01*
X8975331Y3495052D02*
G01*
X8547265Y3495052D01*
X8127479Y3914838D01*
X9039288Y3495052D02*
G01*
X8975331Y3495052D01*
X9039288Y3495052D02*
G01*
X9103245Y3495052D01*
X11705501Y5141709D02*
G01*
X11672176Y5175034D01*
X11610708Y5175034D01*
X11586806Y5151132D01*
X11676494Y4416615D02*
G01*
X11705501Y4445622D01*
X11705501Y5141709D01*
X11705501Y5141709D02*
G01*
X11965063Y5401271D01*
X11987288Y5401271D01*
X13141845Y5083009D02*
G01*
X12734328Y5083009D01*
X12718630Y5067312D01*
X7959813Y2011006D02*
G01*
X8384705Y1586115D01*
X9085414Y1586115D01*
X7959813Y2011006D02*
G01*
X6240919Y292112D01*
X13403821Y4715014D02*
G01*
X13403821Y4422305D01*
X13350074Y5083009D02*
G01*
X13403821Y5029263D01*
X13403821Y4715014D01*
X12624295Y4732261D02*
G01*
X12641541Y4715014D01*
X13403821Y4715014D01*
X11528894Y5151132D02*
G01*
X11586806Y5151132D01*
X10120388Y5712015D02*
G01*
X10604030Y5712015D01*
X10895088Y5420956D01*
X11676494Y4416615D02*
G01*
X11761000Y4332109D01*
X11974588Y4332109D01*
X11676494Y4416615D02*
G01*
X10895088Y4416615D01*
X12374384Y4847145D02*
G01*
X12446317Y4775212D01*
X12465494Y4775212D01*
X9374543Y1586115D02*
G01*
X9374543Y1642884D01*
X9418129Y1686471D01*
X9445282Y1686471D01*
X9527070Y1768259D01*
X9527070Y1841512D01*
X10895088Y4416615D02*
G01*
X10832401Y4353928D01*
X10019296Y4353928D01*
X9901008Y4472216D01*
X9749574Y4472216D01*
X9610864Y4610925D01*
X9610864Y4610925D02*
G01*
X9610864Y4609020D01*
X9610864Y4612805D02*
G01*
X9610864Y4610925D01*
X10895088Y5420956D02*
G01*
X11155337Y5681205D01*
X11549545Y5681205D01*
X11556936Y5673813D01*
X11556936Y5546128D01*
X11537327Y5526519D01*
X11415712Y5526519D01*
X11402479Y5513285D01*
X11402479Y5277548D01*
X11528894Y5151132D01*
X9527070Y1587512D02*
G01*
X9527070Y1519593D01*
X9521888Y1514411D01*
X9381934Y1514411D01*
X9374543Y1521802D01*
X9374543Y1586115D01*
X9085414Y1586115D02*
G01*
X9374543Y1586115D01*
X12319012Y2209228D02*
G01*
X13157796Y3048012D01*
X13631913Y3048012D01*
X13697089Y3113189D01*
X13697089Y3320935D01*
X13589012Y3429012D01*
X11264912Y2471381D02*
G01*
X12056859Y2471381D01*
X12319012Y2209228D01*
X12279388Y4319435D02*
G01*
X12279388Y4387354D01*
X12301207Y4847145D02*
G01*
X12374384Y4847145D01*
X12624295Y4732261D02*
G01*
X12581343Y4775212D01*
X12279388Y4387354D02*
G01*
X12624295Y4732261D01*
X13283450Y5483720D02*
G01*
X13160540Y5483720D01*
X11745988Y5573331D02*
G01*
X11870397Y5697740D01*
X12946519Y5697740D01*
X13160540Y5483720D01*
X11745988Y5573331D02*
G01*
X11745988Y5539193D01*
X11745988Y5607443D02*
G01*
X11745988Y5573331D01*
X9594989Y1841512D02*
G01*
X9527070Y1841512D01*
X12523406Y4775212D02*
G01*
X12465494Y4775212D01*
X12063463Y4897132D02*
G01*
X12113450Y4847145D01*
X12301207Y4847145D01*
X13245960Y5083009D02*
G01*
X13141845Y5083009D01*
X9610864Y4600765D02*
G01*
X9610864Y4544885D01*
X9610864Y4600765D02*
G01*
X9610864Y4609020D01*
X10895088Y4506023D02*
G01*
X10895088Y4416615D01*
X10693412Y2013115D02*
G01*
X10766336Y2013115D01*
X12319012Y2036000D02*
G01*
X10789221Y2036000D01*
X10766336Y2013115D01*
X12319012Y2036000D02*
G01*
X12319012Y2209228D01*
X12319012Y1981314D02*
G01*
X12319012Y2036000D01*
X12523406Y4775212D02*
G01*
X12581343Y4775212D01*
X13403821Y4422305D02*
G01*
X13283450Y4422305D01*
X13589012Y4422305D02*
G01*
X13403821Y4422305D01*
X13350074Y5483720D02*
G01*
X13350074Y5083009D01*
X9302280Y4178998D02*
G01*
X9459734Y4178998D01*
X9525241Y4244505D01*
X9103245Y3495052D02*
G01*
X9195269Y3587076D01*
X9195269Y4071988D01*
X9302280Y4178998D01*
X9358388Y4571199D02*
G01*
X9307029Y4571199D01*
X9285287Y4549457D01*
X9285287Y4195991D01*
X9302280Y4178998D01*
X9358388Y4571199D02*
G01*
X9358388Y4556315D01*
X9358388Y4624235D02*
G01*
X9358388Y4571199D01*
X9358388Y4556315D02*
G01*
X9521151Y4556315D01*
X9532581Y4544885D01*
X9610864Y4544885D01*
X9537763Y4244505D02*
G01*
X9525241Y4244505D01*
X9541675Y4244505D02*
G01*
X9537763Y4244505D01*
X9598164Y4244505D02*
G01*
X9541675Y4244505D01*
X10895088Y5331523D02*
G01*
X10895088Y5420956D01*
X9866388Y5767235D02*
G01*
X9939312Y5767235D01*
X10120388Y5745975D02*
G01*
X9960571Y5745975D01*
X9939312Y5767235D01*
X10120388Y5745975D02*
G01*
X10120388Y5712015D01*
X10120388Y5779909D02*
G01*
X10120388Y5745975D01*
X9804412Y1756524D02*
G01*
X9882339Y1756524D01*
X10426712Y1873110D02*
G01*
X10426712Y1805190D01*
X10426712Y1805190D02*
G01*
X9931006Y1805190D01*
X9882339Y1756524D01*
X10426712Y1873440D02*
G01*
X10426712Y1873110D01*
X10426712Y1873440D02*
G01*
X10426712Y1941029D01*
X10693412Y2013115D02*
G01*
X10693412Y1945195D01*
X10693412Y1945195D02*
G01*
X10498797Y1945195D01*
X10494632Y1941029D01*
X10426712Y1941029D01*
X12660718Y5067312D02*
G01*
X12718630Y5067312D01*
X13703465Y4422305D02*
G01*
X13589012Y4422305D01*
X13589012Y3429012D02*
G01*
X13589012Y4422305D01*
X11987288Y5469496D02*
G01*
X11987288Y5401271D01*
X11987288Y5469496D02*
G01*
X11917591Y5539193D01*
X11745988Y5539193D01*
X7153719Y4979022D02*
G01*
X7153719Y4851107D01*
X7924584Y3914838D02*
G01*
X7924584Y4117759D01*
X7153719Y4851107D02*
G01*
X7191235Y4851107D01*
X7924584Y4117759D01*
X9594989Y1587512D02*
G01*
X9527070Y1587512D01*
X11010912Y2471381D02*
G01*
X10883912Y2471381D01*
X11137912Y2471381D02*
G01*
X11010912Y2471381D01*
X11264912Y2471381D02*
G01*
X11137912Y2471381D01*
X11264912Y3421443D02*
G01*
X11264912Y2471381D01*
X11264912Y3421443D02*
G01*
X11137912Y3421443D01*
X10883912Y3421443D02*
G01*
X10756912Y3421443D01*
X11010912Y3421443D02*
G01*
X10883912Y3421443D01*
X11137912Y3421443D02*
G01*
X11010912Y3421443D01*
X13350074Y5483720D02*
G01*
X13283450Y5483720D01*
X13703465Y5483720D02*
G01*
X13350074Y5483720D01*
X13245960Y5083009D02*
G01*
X13350074Y5083009D01*
X8169719Y4979022D02*
G01*
X8169719Y5106936D01*
X11558435Y5102059D02*
G01*
X11485892Y5102059D01*
X11436819Y5151132D01*
X11558435Y4871732D02*
G01*
X11558435Y5102059D01*
X11558435Y5102059D02*
G01*
X11646928Y5102059D01*
X12963613Y4860074D02*
G01*
X13000672Y4823015D01*
X13245960Y4823015D01*
X11378882Y5151132D02*
G01*
X11320970Y5151132D01*
X11479288Y5607443D02*
G01*
X11408168Y5607443D01*
X11408168Y5607443D02*
G01*
X11320970Y5520245D01*
X11320970Y5151132D01*
X11378882Y5151132D02*
G01*
X11436819Y5151132D01*
X12253988Y5551919D02*
G01*
X12185738Y5551919D01*
X12133719Y5499900D01*
X12133719Y5324894D01*
X12163463Y5295150D01*
X12163463Y5134876D01*
X12253988Y5620169D02*
G01*
X12253988Y5551919D01*
X7534719Y4979022D02*
G01*
X7534719Y5106936D01*
X7534719Y5106936D02*
G01*
X8200351Y5772569D01*
X9345688Y5772569D01*
X7407719Y4851107D02*
G01*
X7869694Y4389132D01*
X8825166Y4389132D01*
X7407719Y4979022D02*
G01*
X7407719Y4851107D01*
X11290312Y2159012D02*
G01*
X11201819Y2159012D01*
X11201819Y2159012D02*
G01*
X11085182Y2275649D01*
X10767250Y2275649D01*
X10693412Y2349487D01*
X10693412Y2597746D01*
X10375912Y2915246D01*
X10375912Y3421443D01*
X12301207Y4897132D02*
G01*
X12632067Y4897132D01*
X12639560Y4889639D01*
X12539662Y5067312D02*
G01*
X12509766Y5097208D01*
X12431991Y5097208D01*
X12539687Y5067312D02*
G01*
X12568643Y5067312D01*
X12510706Y5067312D02*
G01*
X12539662Y5067312D01*
X12539687Y5067312D02*
G01*
X12539662Y5067312D01*
X13245960Y4953012D02*
G01*
X13141845Y4953012D01*
X13141845Y4953012D02*
G01*
X13079082Y5015776D01*
X12620180Y5015776D01*
X12568643Y5067312D01*
X12063463Y4659386D02*
G01*
X12063463Y4506963D01*
X12052300Y4495800D01*
X9345688Y5621896D02*
G01*
X9345688Y5690146D01*
X9345688Y5690146D02*
G01*
X9348228Y5692686D01*
X9702253Y5692686D01*
X9804412Y1926526D02*
G01*
X9804412Y1999424D01*
X9600323Y2095512D02*
G01*
X9668548Y2095512D01*
X9668548Y2095512D02*
G01*
X9764636Y1999424D01*
X9804412Y1999424D01*
X10203141Y4289234D02*
G01*
X10219207Y4305300D01*
X11430000Y4305300D01*
X12013460Y4659376D02*
G01*
X12013460Y4558560D01*
X11950700Y4495800D01*
X11887200Y4495800D01*
X11772900Y4610100D01*
X11633200Y4749800D02*
G01*
X11595100Y4711700D01*
X11315700Y4711700D01*
X7280706Y3148990D02*
G01*
X7280706Y3069793D01*
X8326462Y2024037D01*
X8491410Y2024037D01*
X7959852Y2010918D02*
G01*
X7959852Y2073147D01*
X7153656Y3149092D02*
G01*
X7153656Y3082544D01*
X7959852Y2276347D01*
X7959852Y2010918D01*
X8169656Y5106923D02*
G01*
X8310879Y5248147D01*
X9413747Y5248147D01*
X9790429Y5624829D01*
X9790429Y5821171D01*
X9831324Y5862065D01*
X13705586Y5862065D01*
D11*
G01*
X9358375Y4484217D03*
G01*
X9358375Y4624222D03*
G01*
X9610852Y4472787D03*
G01*
X9610852Y4612792D03*
G01*
X9598152Y4104487D03*
G01*
X9598152Y4244492D03*
D12*
G01*
X9454997Y1841500D03*
G01*
X9595002Y1841500D03*
G01*
X9454997Y1587500D03*
G01*
X9595002Y1587500D03*
D11*
G01*
X11974575Y4332122D03*
G01*
X11974575Y4192117D03*
G01*
X9866375Y5627217D03*
G01*
X9866375Y5767222D03*
G01*
X12279375Y4319422D03*
G01*
X12279375Y4179417D03*
G01*
X10120375Y5639917D03*
G01*
X10120375Y5779922D03*
G01*
X10426700Y1873097D03*
G01*
X10426700Y2013102D03*
G01*
X10693400Y1873097D03*
G01*
X10693400Y2013102D03*
D13*
G01*
X12319000Y1981301D03*
D14*
G01*
X12319000Y3581298D03*
D16*
G01*
X11378895Y5151120D03*
G01*
X11528882Y5151120D03*
G01*
X12673380Y4775200D03*
G01*
X12523419Y4775200D03*
G01*
X12510719Y5067300D03*
G01*
X12660680Y5067300D03*
D17*
G01*
X11558422Y4871720D03*
G01*
X11323929Y4871720D03*
D18*
G01*
X9804400Y1756511D03*
G01*
X9804400Y1926513D03*
D19*
G01*
X10109276Y4217415D03*
G01*
X10109276Y4027423D03*
G01*
X10309275Y4122420D03*
G01*
X10109276Y4611115D03*
G01*
X10109276Y4421123D03*
G01*
X10309275Y4516120D03*
D20*
G01*
X9358376Y4261244D03*
D21*
G01*
X9358375Y4110583D03*
D22*
G01*
X9449675Y2095500D03*
G01*
X9600324Y2095500D03*
D20*
G01*
X9345676Y5621895D03*
D21*
G01*
X9345675Y5772556D03*
D20*
G01*
X9599676Y5772544D03*
D21*
G01*
X9599675Y5621883D03*
D20*
G01*
X11479276Y5456795D03*
D21*
G01*
X11479275Y5607456D03*
D20*
G01*
X11745976Y5456795D03*
D21*
G01*
X11745975Y5607456D03*
D20*
G01*
X12253976Y5469495D03*
D21*
G01*
X12253975Y5620156D03*
D20*
G01*
X11987276Y5469495D03*
D21*
G01*
X11987275Y5620156D03*
D20*
G01*
X10425176Y5785244D03*
D21*
G01*
X10425175Y5634583D03*
D20*
G01*
X9853676Y4540644D03*
D21*
G01*
X9853675Y4389983D03*
D23*
G01*
X10895076Y5331519D03*
G01*
X10895076Y4894520D03*
G01*
X10895076Y4506019D03*
G01*
X10895076Y4069020D03*
D24*
G01*
X7153706Y4979009D03*
G01*
X7280706Y4979009D03*
G01*
X7407706Y4979009D03*
G01*
X7534706Y4979009D03*
G01*
X7661706Y4979009D03*
G01*
X7788706Y4979009D03*
G01*
X7915706Y4979009D03*
D25*
G01*
X8975318Y4257039D03*
G01*
X8975318Y4384039D03*
G01*
X8975318Y4511039D03*
G01*
X8975318Y4130039D03*
G01*
X8975318Y4003039D03*
G01*
X8975318Y3876039D03*
D24*
G01*
X7153706Y3148990D03*
G01*
X7280706Y3148990D03*
G01*
X7407706Y3148990D03*
D25*
G01*
X8975318Y3622039D03*
G01*
X8975318Y3495039D03*
D24*
G01*
X8804706Y3148990D03*
G01*
X8677706Y3148990D03*
G01*
X8550706Y3148990D03*
D25*
G01*
X8975318Y3749039D03*
D24*
G01*
X8042706Y4979009D03*
G01*
X8169706Y4979009D03*
G01*
X8296706Y4979009D03*
G01*
X8423706Y4979009D03*
G01*
X8550706Y4979009D03*
G01*
X8677706Y4979009D03*
G01*
X8804706Y4979009D03*
D25*
G01*
X8975318Y4638039D03*
D24*
G01*
X8423706Y3148990D03*
G01*
X8296706Y3148990D03*
G01*
X8169706Y3148990D03*
G01*
X8042706Y3148990D03*
G01*
X7915706Y3148990D03*
G01*
X7788706Y3148990D03*
G01*
X7661706Y3148990D03*
G01*
X7534706Y3148990D03*
D26*
G01*
X7924571Y3914825D03*
D27*
G01*
X9085402Y1586103D03*
G01*
X9085402Y1816100D03*
G01*
X9085402Y2046096D03*
D28*
G01*
X8491397Y1816100D03*
D29*
G01*
X12301220Y4747132D03*
G01*
X12301220Y4797120D03*
G01*
X12301220Y4847132D03*
G01*
X12301220Y4897120D03*
G01*
X12301220Y4947132D03*
G01*
X12301220Y4997119D03*
G01*
X12301220Y5047132D03*
D30*
G01*
X12213463Y5134863D03*
G01*
X12163475Y5134863D03*
G01*
X12113463Y5134863D03*
G01*
X12063475Y5134863D03*
G01*
X12013463Y5134863D03*
G01*
X11963476Y5134863D03*
G01*
X11913463Y5134863D03*
D29*
G01*
X11825731Y5047132D03*
G01*
X11825731Y4997119D03*
G01*
X11825731Y4947132D03*
G01*
X11825731Y4897120D03*
G01*
X11825731Y4847132D03*
G01*
X11825731Y4797120D03*
G01*
X11825731Y4747132D03*
D30*
G01*
X11913463Y4659376D03*
G01*
X11963476Y4659376D03*
G01*
X12013463Y4659376D03*
G01*
X12063475Y4659376D03*
G01*
X12113463Y4659376D03*
G01*
X12163475Y4659376D03*
G01*
X12213463Y4659376D03*
D31*
G01*
X12063475Y4897120D03*
D32*
G01*
X10375900Y2471369D03*
G01*
X10502900Y2471369D03*
G01*
X10629900Y2471369D03*
G01*
X10756900Y2471369D03*
G01*
X10883900Y2471369D03*
G01*
X11010900Y2471369D03*
G01*
X11137900Y2471369D03*
G01*
X11264900Y2471369D03*
G01*
X10375900Y3421430D03*
G01*
X10502900Y3421430D03*
G01*
X10629900Y3421430D03*
G01*
X10756900Y3421430D03*
G01*
X10883900Y3421430D03*
G01*
X11010900Y3421430D03*
G01*
X11137900Y3421430D03*
G01*
X11264900Y3421430D03*
D33*
G01*
X13283438Y5483707D03*
G01*
X13283438Y4422292D03*
G01*
X13703452Y4422292D03*
G01*
X13703452Y5483707D03*
D34*
G01*
X13245947Y5082997D03*
G01*
X13245947Y5017998D03*
G01*
X13245947Y4953000D03*
G01*
X13245947Y4888001D03*
G01*
X13245947Y4823002D03*
D35*
G01*
X6240906Y292100D03*
G01*
X13240893Y292100D03*
D36*
G01*
X13589000Y3429000D03*
G01*
X13589000Y3175000D03*
G01*
X13589000Y2921000D03*
G01*
X13589000Y2667000D03*
G01*
X13589000Y2413000D03*
D37*
G01*
X13589000Y2159000D03*
D38*
G01*
X11036300Y2159000D03*
G01*
X11036300Y1651000D03*
G01*
X11290300Y1651000D03*
G01*
X11290300Y2159000D03*
G01*
X11544300Y1651000D03*
G01*
X11544300Y2159000D03*
D39*
G01*
X10449686Y4741290D03*
G01*
X12313843Y4684445D03*
G01*
X11960225Y5226151D03*
G01*
X11749735Y5349138D03*
G01*
X12192304Y5349138D03*
G01*
X9706609Y5845530D03*
G01*
X12134545Y4567148D03*
G01*
X12213463Y4567681D03*
G01*
X11641480Y4647412D03*
G01*
X10203154Y4289221D03*
G01*
X9999192Y4027423D03*
G01*
X10000310Y4217415D03*
G01*
X10318521Y5785230D03*
G01*
X12711226Y2515870D03*
G01*
X10451972Y4836109D03*
G01*
X10315930Y5940094D03*
G01*
X8042732Y4830140D03*
G01*
X9421926Y3829405D03*
G01*
X10546968Y4069029D03*
G01*
X10176586Y5552567D03*
G01*
X12506807Y4145762D03*
G01*
X12393675Y5022138D03*
G01*
X11383441Y4785995D03*
G01*
X9421012Y1350543D03*
G01*
X9421012Y1748942D03*
G01*
X13705713Y5861989D03*
G01*
X12963626Y4860061D03*
G01*
X11646941Y5102047D03*
G01*
X8825179Y4389120D03*
G01*
X12639573Y4889627D03*
G01*
X12432004Y5097195D03*
G01*
X12052300Y4495800D03*
G01*
X9702266Y5692673D03*
D40*
G01*
X11430000Y4305300D03*
G01*
X11772900Y4610100D03*
G01*
X11633200Y4749800D03*
G01*
X11315700Y4711700D03*
M02*
